<svg width="268" height="242" viewBox="0 0 268 242" fill="none" xmlns="http://www.w3.org/2000/svg">
<path d="M0.100829 47.0671C0.100887 36.2375 0.415993 16.7442 3.74393 10.4131C9.41112 -0.368316 24.4852 0.289637 36.652 0.859711L229.773 9.9084C236.779 10.2366 243.508 12.7434 249.02 17.0788L256.22 22.7406C259.339 25.1941 261.681 28.4999 262.959 32.2572C266.297 42.0638 268 52.3323 268 62.6913V171.171C268 180.059 264.933 188.698 259.316 195.587C254.282 201.763 246.743 205.346 238.776 205.346H192.705C191.583 205.346 190.261 205.539 188.853 205.856C180.406 207.756 173.788 213.98 168.633 220.936C167.489 222.481 166.227 223.932 164.936 225.357C158.976 231.938 151.013 242 133.634 242C127.855 242 122.519 240.359 118.186 238.299C111.305 235.027 106.409 228.914 101.903 222.771C94.0396 212.049 80.8993 206.67 67.6262 207.456C53.5009 208.291 36.7947 208.233 24.6443 205.346C5.00947 200.681 -0.869851 175.217 0.100829 163.694V47.0671Z" fill="#D9D9D9" fill-opacity="0.138"/>
</svg>
