<svg xmlns="http://www.w3.org/2000/svg" width="500" height="331" fill="none"><path fill="#8BAA36" d="M411.067 162.114s24.463 2.407 36.855 17.474c0 0 13.108-17.453 36.632-17.092a47.084 47.084 0 0 0 10.556-24.136 46.956 46.956 0 0 0-4.083-26.001 47.332 47.332 0 0 0-17.453-19.796 47.782 47.782 0 0 0-25.408-7.447 47.787 47.787 0 0 0-25.476 7.212 47.346 47.346 0 0 0-17.638 19.634 46.964 46.964 0 0 0-4.325 25.962 47.073 47.073 0 0 0 10.329 24.232l.011-.042Z"/><path fill="#FAFAFA" d="M411.067 162.114s24.463 2.407 36.855 17.474c0 0 13.108-17.453 36.632-17.092a47.084 47.084 0 0 0 10.556-24.136 46.956 46.956 0 0 0-4.083-26.001 47.332 47.332 0 0 0-17.453-19.796 47.782 47.782 0 0 0-25.408-7.447 47.787 47.787 0 0 0-25.476 7.212 47.346 47.346 0 0 0-17.638 19.634 46.964 46.964 0 0 0-4.325 25.962 47.073 47.073 0 0 0 10.329 24.232l.011-.042Z" opacity=".5"/><path fill="#B8B8B8" d="m447.105 88.445-.822 157.495h4.131l-3.309-157.495Z"/><path fill="#B8B8B8" d="M448.347 174.996s8.251-14.77 23.119-19.286c0 0-15.69 3.7-23.482 16.413l.363 2.873ZM448.347 133.157s8.251-14.77 23.119-19.287c0 0-15.69 3.69-23.482 16.413l.363 2.874ZM448.347 154.055s8.251-14.77 23.119-19.287c0 0-15.69 3.701-23.482 16.414l.363 2.873ZM447.119 143.813s-7.973-14.759-22.318-19.276c0 0 15.146 3.69 22.713 16.414l-.395 2.862ZM447.119 164.33s-7.973-14.77-22.318-19.276c0 0 15.146 3.689 22.713 16.402l-.395 2.874Z"/><path fill="#8BAA36" d="M10.672 162.114s24.464 2.407 36.856 17.474c0 0 13.107-17.452 36.632-17.092a47.08 47.08 0 0 0 10.555-24.136 46.955 46.955 0 0 0-4.082-26 47.334 47.334 0 0 0-17.454-19.796 47.782 47.782 0 0 0-25.407-7.448 47.786 47.786 0 0 0-25.476 7.213 47.344 47.344 0 0 0-17.638 19.634 46.959 46.959 0 0 0-4.326 25.962 47.074 47.074 0 0 0 10.33 24.232l.01-.043Z"/><path fill="#FAFAFA" d="M10.672 162.114s24.464 2.407 36.856 17.474c0 0 13.107-17.452 36.632-17.092a47.08 47.08 0 0 0 10.555-24.136 46.955 46.955 0 0 0-4.082-26 47.334 47.334 0 0 0-17.454-19.796 47.782 47.782 0 0 0-25.407-7.448 47.786 47.786 0 0 0-25.476 7.213 47.344 47.344 0 0 0-17.638 19.634 46.959 46.959 0 0 0-4.326 25.962 47.074 47.074 0 0 0 10.33 24.232l.01-.043Z" opacity=".5"/><path fill="#B8B8B8" d="M46.721 88.446 45.89 245.94h4.13L46.721 88.446Z"/><path fill="#B8B8B8" d="M47.972 174.997s8.25-14.77 23.12-19.286c0 0-15.69 3.7-23.483 16.413l.363 2.873ZM47.972 133.158s8.25-14.77 23.12-19.287c0 0-15.69 3.69-23.483 16.413l.363 2.874ZM47.972 154.056s8.25-14.77 23.12-19.287c0 0-15.69 3.701-23.483 16.414l.363 2.873ZM46.73 143.814s-7.973-14.759-22.318-19.276c0 0 15.146 3.69 22.714 16.413l-.395 2.863ZM46.73 164.33s-7.973-14.769-22.318-19.276c0 0 15.146 3.69 22.714 16.403l-.395 2.873Z"/><path fill="#8BAA36" d="M311.67 177.382s20.023 1.962 30.163 14.293c0 0 10.727-14.282 29.982-13.996a38.53 38.53 0 0 0 8.633-19.754 38.44 38.44 0 0 0-3.347-21.278 38.743 38.743 0 0 0-14.288-16.197 39.113 39.113 0 0 0-20.794-6.09 39.113 39.113 0 0 0-20.848 5.907 38.752 38.752 0 0 0-14.431 16.07 38.432 38.432 0 0 0-3.537 21.247 38.522 38.522 0 0 0 8.456 19.83l.011-.032Z"/><path fill="#FAFAFA" d="M311.67 177.382s20.023 1.962 30.163 14.293c0 0 10.727-14.282 29.982-13.996a38.53 38.53 0 0 0 8.633-19.754 38.44 38.44 0 0 0-3.347-21.278 38.743 38.743 0 0 0-14.288-16.197 39.113 39.113 0 0 0-20.794-6.09 39.113 39.113 0 0 0-20.848 5.907 38.752 38.752 0 0 0-14.431 16.07 38.432 38.432 0 0 0-3.537 21.247 38.522 38.522 0 0 0 8.456 19.83l.011-.032Z" opacity=".5"/><path fill="#B8B8B8" d="m341.164 117.03-.673 128.91h3.384l-2.711-128.91Z"/><path fill="#B8B8B8" d="M342.184 187.878s6.767-12.087 18.924-15.787c0 0-12.808 3.021-19.212 13.433l.288 2.354ZM342.184 153.632s6.767-12.088 18.924-15.777c0 0-12.808 3.021-19.212 13.423l.288 2.354ZM342.184 170.755s6.767-12.088 18.924-15.788c0 0-12.808 3.022-19.212 13.434l.288 2.354ZM341.181 162.358s-6.521-12.087-18.262-15.777c0 0 12.392 3.022 18.593 13.423l-.331 2.354ZM341.181 179.142s-6.521-12.088-18.262-15.777c0 0 12.392 3.021 18.593 13.433l-.331 2.344Z"/><path fill="#8BAA36" d="M117.934 177.383s20.024 1.961 30.164 14.292c0 0 10.673-14.282 29.982-13.995a38.536 38.536 0 0 0 8.632-19.755 38.426 38.426 0 0 0-3.347-21.277 38.729 38.729 0 0 0-14.287-16.197 39.108 39.108 0 0 0-20.794-6.091 39.113 39.113 0 0 0-20.848 5.907 38.751 38.751 0 0 0-14.432 16.071 38.429 38.429 0 0 0-3.536 21.247 38.518 38.518 0 0 0 8.456 19.829l.01-.031Z"/><path fill="#FAFAFA" d="M117.934 177.383s20.024 1.961 30.164 14.292c0 0 10.673-14.282 29.982-13.995a38.536 38.536 0 0 0 8.632-19.755 38.426 38.426 0 0 0-3.347-21.277 38.729 38.729 0 0 0-14.287-16.197 39.108 39.108 0 0 0-20.794-6.091 39.113 39.113 0 0 0-20.848 5.907 38.751 38.751 0 0 0-14.432 16.071 38.429 38.429 0 0 0-3.536 21.247 38.518 38.518 0 0 0 8.456 19.829l.01-.031Z" opacity=".5"/><path fill="#B8B8B8" d="m147.438 117.031-.672 128.91h3.383l-2.711-128.91Z"/><path fill="#B8B8B8" d="M148.507 187.879s6.767-12.087 18.924-15.788c0 0-12.808 3.022-19.212 13.434l.288 2.354ZM148.507 153.632s6.767-12.087 18.924-15.777c0 0-12.808 3.022-19.212 13.423l.288 2.354ZM148.507 170.755s6.767-12.087 18.924-15.788c0 0-12.808 3.022-19.212 13.434l.288 2.354ZM147.438 162.358s-6.511-12.087-18.251-15.724c0 0 12.392 3.022 18.593 13.423l-.342 2.301ZM147.437 179.142s-6.521-12.087-18.262-15.777c0 0 12.392 3.022 18.593 13.434l-.331 2.343Z"/><path stroke="#22252A" stroke-miterlimit="10" stroke-width="1.047" d="M18.033 246.502H478.64"/><path fill="#000" d="M143.798 297.67c0 3.181-19.671 5.715-43.954 5.715-24.282 0-43.953-2.555-43.953-5.715 0-3.16 19.682-5.715 43.953-5.715 24.272 0 43.954 2.566 43.954 5.715ZM235.814 297.67c0 3.181-19.682 5.715-43.954 5.715-24.272 0-43.954-2.556-43.954-5.715 0-3.16 19.682-5.715 43.954-5.715 24.272 0 43.954 2.566 43.954 5.715ZM357.711 297.67c0 3.181-19.671 5.715-43.943 5.715s-43.954-2.555-43.954-5.715c0-3.16 19.672-5.715 43.954-5.715 24.283 0 43.943 2.566 43.943 5.715ZM459.532 297.67c0 3.181-19.682 5.715-43.954 5.715-24.271 0-43.996-2.555-43.996-5.715 0-3.16 19.682-5.715 43.954-5.715 24.271 0 43.996 2.566 43.996 5.715Z" opacity=".3"/><path fill="#FAFAFA" stroke="#22252A" stroke-linecap="round" stroke-linejoin="round" stroke-width="1.047" d="M318.517 130.486s-1.804 7.422-1.804 8.673a10.6 10.6 0 0 1-.256 2.301s-3.853 4.591-3.341 5.863a6.209 6.209 0 0 0 2.573 2.291s2.049 7.422 4.109 7.909c2.116.393 4.255.648 6.404.764l.769 6.118 10.268-1.527-2.562-9.182 1.067-7.91s1.793-3.308 0-8.663c-1.793-5.354-5.646-5.608-8.218-5.608a89.298 89.298 0 0 1-9.009-1.029Z"/><path fill="#22252A" stroke="#22252A" stroke-linecap="round" stroke-linejoin="round" stroke-width="1.047" d="M323.129 126.668s-8.987-.265-8.731 2.036c.256 2.301 9.499 5.302 9.499 5.302s-3.084 2.035-1.547 4.082c1.537 2.046 5.134 3.827 5.134 3.827s-1.068 4.337.523 4.591c1.59.255 2.561-2.046 2.818-2.809.256-.764 3.084-.509 3.853 1.526.434 1.058.694 2.179.768 3.319 0 0 3.085-9.182 3.597-13.264.513-4.082-11.036-8.61-15.914-8.61Z"/><path fill="#FAFAFA" d="M328.823 146.634s3.106-6.786 4.963-3.446c1.858 3.339 1.068 6.817-.757 7.188-1.826.371-3.352.732-3.352.732"/><path stroke="#22252A" stroke-linecap="round" stroke-linejoin="round" stroke-width="1.047" d="M328.823 146.634s3.106-6.786 4.963-3.446c1.858 3.339 1.068 6.817-.757 7.188-1.826.371-3.352.732-3.352.732"/><path fill="#22252A" stroke="#22252A" stroke-linecap="round" stroke-linejoin="round" stroke-width="1.047" d="M316.201 217.45c-.502.583-8.731 18.11-9.756 23.973-1.025 5.864-7.696 40.811-7.963 42.337-.266 1.527-14.366 4.591-15.401 4.846-1.036.254 1.067 3.064 4.109 3.827 3.042.764 11.815 4.337 13.875 2.291 2.06-2.047 4.878-13.519 5.647-14.791.768-1.273 15.22-35.096 15.22-35.096s7.408-16.233 8.945-17.77c1.537-1.538-1.825-8.334-3.117-10.38-1.291-2.047-7.962-3.319-11.559.763Z"/><path fill="#22252A" stroke="#22252A" stroke-linecap="round" stroke-linejoin="round" stroke-width="1.047" d="M314.662 217.672s3.597 17.092 5.39 23.21a48.745 48.745 0 0 0 7.472 14.282c2.06 2.81 12.072 27.567 12.072 27.567l1.537 3.828s-.513 1.527-3.331 3.562c-2.817 2.036-10.791 5.355-8.731 6.129 2.06.774 10.268.763 14.122.509a13.384 13.384 0 0 0 8.72-4.082c1.548-1.792-2.562-6.892-2.562-7.91 0-1.018-8.987-32.127-9.499-33.664-.513-1.537-3.085-12.49-3.085-12.49v-12.459s1.292-2.29 1.292-7.422c0-5.131-3.854-6.128-3.854-6.128l-21.059 2.046 1.516 3.022Z"/><path fill="#8BAA36" stroke="#22252A" stroke-linecap="round" stroke-linejoin="round" stroke-width="1.047" d="M312.875 216.177s.523 4.337 2.06 4.591c1.537.255 17.451 4.591 24.389-.509 0 0 1.281-3.827.512-4.845-.768-1.018-2.572-.509-11.805-.509-9.232 0-15.156 0-15.156 1.272Z"/><path fill="#8BAA36" stroke="#22252A" stroke-linecap="round" stroke-linejoin="round" stroke-width="1.047" d="M336.475 159.05s-9.5 1.272-13.609 5.301-7.696 11.483-9.489 18.364c-1.793 6.881-3.085 32.137-.523 33.41 2.562 1.272 24.133 2.555 27.751 1.06 3.619-1.495-.256-13.519-.256-18.11 0-4.591 4.109-20.145 3.341-28.808-.769-8.662-7.215-11.217-7.215-11.217Z"/><path fill="#22252A" stroke="#22252A" stroke-linecap="round" stroke-linejoin="round" stroke-width="1.047" d="M302.198 185.557c-.118-10.497-4.43-19.456-10.162-23.326v-2.121l-15.796.159c-8.892.095-16.011 11.663-15.829 25.765.181 14.102 7.471 25.521 16.373 25.447l15.797-.159v-2.121c5.55-4.103 9.67-13.147 9.617-23.644Z"/><path fill="#FAFAFA" stroke="#22252A" stroke-linecap="round" stroke-linejoin="round" stroke-width="1.047" d="M309.285 185.482c-.117-11.027-4.397-20.442-10.417-24.535v-2.258l-6.767.074c-9.35.096-16.79 12.215-16.63 27.069.16 14.855 7.856 26.815 17.206 26.719l6.767-.074v-2.248c5.881-4.22 9.959-13.762 9.841-24.747Z"/><path fill="#737373" stroke="#22252A" stroke-linecap="round" stroke-linejoin="round" stroke-width="1.047" d="M316.074 185.408c.16 14.844-7.29 26.974-16.629 27.069-9.34.096-17.078-11.864-17.206-26.708-.128-14.844 7.29-26.974 16.629-27.08 9.34-.106 17.025 11.865 17.206 26.719Z"/><path fill="#22252A" stroke="#22252A" stroke-linecap="round" stroke-linejoin="round" stroke-width="1.047" d="M312.196 184.952c.075 7.03-3.458 12.777-7.888 12.83-4.429.053-8.08-5.631-8.154-12.724-.075-7.093 3.458-12.723 7.887-12.829 4.43-.106 8.08 5.683 8.155 12.723ZM437.973 237.818a128.012 128.012 0 0 0 1.12-19.722c-3.469 1.591-23.706 2.174-25.563 2.216-1.857.043-22.094-.625-25.563-2.216a127.988 127.988 0 0 0 1.067 19.722c1.399 8.599 13.695 43.026 13.972 44.691.36 1.605.827 3.185 1.398 4.729 0 0-6.991 4.994-10.065 6.934-3.074 1.94-.832 2.778 2.242 2.778s9.499-.838 11.452-.838c1.729 0 4.739-1.495 5.444-1.855.704.36 3.714 1.855 5.433 1.855 1.964 0 8.389.838 11.463.838s5.337-.838 2.241-2.778c-3.095-1.94-10.065-6.934-10.065-6.934a36.791 36.791 0 0 0 1.399-4.729c.33-1.697 12.626-36.124 14.025-44.691Z"/><path fill="#8BAA36" stroke="#22252A" stroke-linecap="round" stroke-linejoin="round" stroke-width="1.047" d="M409.301 164.117s-10.812 3.51-16.394 7.03c-5.583 3.52-11.186 22.584-11.186 23.326a23.632 23.632 0 0 1-1.303 3.881s-5.592-1.294-6.703 3.329c-1.11 4.623 5.583 10.55 9.126 10.741 3.544.19 4.654-.923 4.654-.923s-2.231 4.443-1.302 6.288c.928 1.844 8.763 8.705 24.229 8.482 15.466-.223 26.684-2.778 28.317-4.994 1.633-2.216 1.868-6.849 1.868-6.849s5.774-1.485 7.823-5.185c2.05-3.701 1.676-7.592.555-11.473-1.12-3.88-6.895-15.151-10.801-21.449-3.907-6.298-12.115-9.808-16.011-10.921-3.895-1.113-10.268-1.283-12.872-1.283Z"/><path fill="#FAFAFA" stroke="#22252A" stroke-linecap="round" stroke-linejoin="round" stroke-width="1.047" d="M412.578 179.703c1.548-.509 6.404-4.792 8.272-9.076a20.519 20.519 0 0 0 1.548-5.142l-.246-.074c-3.906-1.114-10.246-1.294-12.808-1.294 0 0-2.263.732-5.251 1.866a18.954 18.954 0 0 0 1.281 6.701c1.686 4.284 5.699 7.539 7.204 7.019Z"/><path stroke="#22252A" stroke-linecap="round" stroke-linejoin="round" stroke-width="1.047" d="M430.35 188.355s4.472 23.698 9.542 26.136M387.497 211.502s5.593-20.92 5.967-22.956"/><path stroke="#22252A" stroke-linecap="round" stroke-linejoin="round" stroke-width="1.047" d="M437.572 199.064s-3.095.689-3.095 2.916M384.99 199.404s3.448 2.226 3.106 5.651"/><path fill="#8BAA36" stroke="#22252A" stroke-linecap="round" stroke-linejoin="round" stroke-width="1.047" d="M408.086 296.132c1.73 0 4.739-1.495 5.444-1.855.704.36 3.714 1.855 5.433 1.855 1.964 0 8.389.838 11.463.838s5.337-.838 2.242-2.778c-2.679-1.686-8.294-5.673-9.724-6.69-3.298 2.99-9.82 2.247-9.82 2.247a33.534 33.534 0 0 1-3.917-.827c-1.953-.562-4.75-1.664-4.75-1.664s-6.991 4.994-10.065 6.934c-3.074 1.94-.832 2.778 2.242 2.778s9.499-.838 11.452-.838Z"/><path stroke="#FAFAFA" stroke-linecap="round" stroke-linejoin="round" stroke-width="1.047" d="M413.117 287.3v-48.412"/><path stroke="#22252A" stroke-linecap="round" stroke-linejoin="round" stroke-width="1.047" d="m413.523 294.223-.406-4.527V287.3"/><path stroke="#FAFAFA" stroke-linecap="round" stroke-linejoin="round" stroke-width="1.047" d="M409.2 237.223h8.101"/><path fill="#22252A" stroke="#22252A" stroke-linecap="round" stroke-linejoin="round" stroke-width="1.047" d="M398.614 136.338s-5.807 3.456-4.942 6.489c.864 3.032 3.49 3.615 2.914 5.301-.577 1.686-2.594 2.746-.299 3.807a19.745 19.745 0 0 0 4.077 1.304s2.135 7.358 5.807 8.652c3.671 1.293 10.033.434 14.537-.138a7.556 7.556 0 0 0 4.129-1.734 7.472 7.472 0 0 0 2.403-3.758c.438-1.58-1.889.296-3.053-1.442-1.163-1.739.588-6.203 1.89-10.105s-2.615-11.26-7.696-13.709c-5.081-2.45-14.783-1.167-19.767 5.333Z"/><path fill="#FAFAFA" stroke="#22252A" stroke-linecap="round" stroke-linejoin="round" stroke-width="1.047" d="M408.375 161.477a38.89 38.89 0 0 0-1.494 7.422c-.192 3.181 2.423 6.669 5.219 6.479 2.797-.191 5.209-5.737 5.583-8.483.373-2.746-.929-10.179-.929-10.179s-4.269.191-5.966 1.665a10.28 10.28 0 0 0-2.413 3.096Z"/><path fill="#FAFAFA" stroke="#22252A" stroke-linecap="round" stroke-linejoin="round" stroke-width="1.047" d="M404.584 140.378s.138 4.326 4.504 8.482a27.012 27.012 0 0 0 9.147 5.779 7.941 7.941 0 0 1-.726 2.735c-.189.36-.485.655-.847.844a2.03 2.03 0 0 1-1.181.216h-1.462s-2.135 4.973-4.718 5.694c-2.583.721-8.933.223-9.809-6.128-.875-6.351-1.014-11.547-.288-12.851.726-1.304 5.38-4.771 5.38-4.771ZM450.25 196.254a11.618 11.618 0 0 0 1.185-4.241c0-1.93-3.608-4.697-4.27-5.386-.661-.689-1.323-.615-1.462.35a3.967 3.967 0 0 0 1.249 2.894 3.246 3.246 0 0 1 1.121 1.665c.064.477-1.196 2.82-.566 4.336.63 1.517 2.402 1.973 2.743.382Z"/><path stroke="#22252A" stroke-linecap="round" stroke-linejoin="round" stroke-width="3.142" d="M305.706 185.429s15.712 4.994 25.158 16.657c9.446 11.663 15.647 9.988 27.388 6.108 11.741-3.881 16.213-17.771 32.426-6.108s19.565 16.095 32.982 9.437c13.416-6.659 20.674-22.764 32.981-17.219 12.307 5.545 6.703 33.929 7.824 47.713 1.12 13.783-.566 48.317 2.23 52.759 2.797 4.443 31.306 1.061 31.306 1.061"/><path fill="#8BAA36" d="M335.133 166.896s-3.127-5.068-7.738-3.743c-4.878 1.4-7.397 8.323-8.539 12.639-1.142 4.315-1.911 8.98-4.003 12.999 0 0-9.243-.159-14.398-1.644a122.415 122.415 0 0 1-11.592-4.241s-1.825-2.534-3.117-3.032c-1.291-.499-4.643-1.474-4.888-.711-.246.764 3.885 3.277 3.885 3.277s-7.685 1.06-8.453 1.876c-.769.817 5.432 3.255 5.432 3.255s2.317.743 7.952-.593c0 0 20.675 13.041 24.795 14.536 4.12 1.495 6.404 1.972 9.211-3.414 2.807-5.386 12.125-18.746 13.609-24.122"/><path stroke="#22252A" stroke-linecap="round" stroke-linejoin="round" stroke-width="1.047" d="M335.133 166.896s-3.127-5.068-7.738-3.743c-4.878 1.4-7.397 8.323-8.539 12.639-1.142 4.315-1.911 8.98-4.003 12.999 0 0-9.243-.159-14.398-1.644a122.415 122.415 0 0 1-11.592-4.241s-1.825-2.534-3.117-3.032c-1.291-.499-4.643-1.474-4.888-.711-.246.764 3.885 3.277 3.885 3.277s-7.685 1.06-8.453 1.876c-.769.817 5.432 3.255 5.432 3.255s2.317.743 7.952-.593c0 0 20.675 13.041 24.795 14.536 4.12 1.495 6.404 1.972 9.211-3.414 2.807-5.386 12.125-18.746 13.609-24.122"/><path fill="#FAFAFA" stroke="#22252A" stroke-linecap="round" stroke-linejoin="round" stroke-width="1.047" d="M294.231 185.069c-3.021-1.124-5.337-2.121-5.337-2.121s-1.825-2.534-3.116-3.032c-1.292-.499-4.643-1.474-4.889-.711-.245.764 3.885 3.277 3.885 3.277s-7.685 1.06-8.453 1.876c-.769.817 5.433 3.255 5.433 3.255s2.316.743 7.951-.593l2.893 1.813 1.633-3.764ZM373.915 198.205a11.618 11.618 0 0 1-1.185-4.241c0-1.93 3.619-4.686 4.27-5.376.651-.689 1.313-.614 1.452.35a3.955 3.955 0 0 1-1.249 2.895 3.246 3.246 0 0 0-1.121 1.665c-.064.466 1.195 2.82.566 4.336-.63 1.516-2.391 1.951-2.733.371Z"/><path fill="#FAFAFA" stroke="#22252A" stroke-linecap="round" stroke-linejoin="round" stroke-width="1.047" d="M376.403 192.384s-2.978 5.461-1.249 7.422c1.729 1.962 3.405-4.41 3.725-6.17.32-1.761-1.377-3.531-2.476-1.252Z"/><path fill="#FAFAFA" stroke="#22252A" stroke-linecap="round" stroke-linejoin="round" stroke-width="1.047" d="M378.855 194.346s-2.978 5.46-1.249 7.422c1.729 1.961 3.405-4.411 3.725-6.171.321-1.76-1.377-3.594-2.476-1.251Z"/><path fill="#FAFAFA" stroke="#22252A" stroke-linecap="round" stroke-linejoin="round" stroke-width="1.047" d="M381.561 194.802s-2.978 5.46-1.249 7.422c1.729 1.962 3.405-4.411 3.725-6.171.321-1.76-1.377-3.541-2.476-1.251Z"/><path fill="#FAFAFA" stroke="#22252A" stroke-linecap="round" stroke-linejoin="round" stroke-width="1.047" d="M385.017 194.844s-2.775 4.241-1.26 5.842c1.516 1.601 3.149-3.435 3.469-4.888.321-1.453-1.184-2.863-2.209-.954ZM448.275 192.597s2.978 5.461 1.248 7.422c-1.729 1.962-3.404-4.421-3.725-6.181-.32-1.76 1.377-3.531 2.477-1.241Z"/><path fill="#FAFAFA" stroke="#22252A" stroke-linecap="round" stroke-linejoin="round" stroke-width="1.047" d="M445.822 194.505s2.978 5.461 1.249 7.422c-1.729 1.962-3.405-4.421-3.725-6.181-.32-1.76 1.377-3.52 2.476-1.241Z"/><path fill="#FAFAFA" stroke="#22252A" stroke-linecap="round" stroke-linejoin="round" stroke-width="1.047" d="M443.096 195.014s2.978 5.461 1.249 7.422c-1.729 1.962-3.405-4.411-3.714-6.181-.31-1.771 1.398-3.531 2.465-1.241Z"/><path fill="#FAFAFA" stroke="#22252A" stroke-linecap="round" stroke-linejoin="round" stroke-width="1.047" d="M439.653 195.056s2.775 4.294 1.259 5.842-3.149-3.435-3.458-4.888c-.31-1.452 1.174-2.862 2.199-.954ZM72.432 255.471v6.022a19.058 19.058 0 0 0-4.408 8.037c-1.292 4.92-5.337 26.094-4.27 26.645 1.068.552 11.112 2.831 14.314 2.354 3.672-.551 6.799-.36 4.952-2.375-1.846-2.014-11.548-7.644-11.548-7.644s10.673-15.332 13.043-20.994c2.37-5.662 2.753-14.42 2.753-14.42l-14.323-.541-.513 2.916Z"/><path fill="#22252A" stroke="#22252A" stroke-linecap="round" stroke-linejoin="round" stroke-width="1.047" d="M78.069 298.529c3.671-.551 6.799-.36 4.952-2.375-1.847-2.014-11.549-7.645-11.549-7.645l-.363 2.185-6.99-.849c-.513 3.542-.737 6.139-.364 6.362 1.142.509 11.111 2.799 14.313 2.322Z"/><path fill="#FAFAFA" stroke="#22252A" stroke-linecap="round" stroke-linejoin="round" stroke-width="1.047" d="m107.521 258.588 1.654 2.926a10.62 10.62 0 0 0-.555 8.578c1.654 5.111 5.518 23.909 5.518 25.002 0 1.092 2.38 1.823 4.27 1.823 1.889 0 7.119.361 7.855.361.737 0 6.063.912 7.899-.18 1.836-1.093-2.338-3.287-5.091-4.56-2.754-1.272-8.817-4.559-8.817-4.559s1.462-14.971 1.462-21.545c0-6.574 1.473-8.758-.544-12.776-2.017-4.019-14.697 1.834-14.697 1.834l1.046 3.096Z"/><path fill="#22252A" stroke="#22252A" stroke-linecap="round" stroke-linejoin="round" stroke-width="1.047" d="M129.014 292.539c-2.754-1.283-8.816-4.56-8.816-4.56l-.737 2.736-5.902 1.06c.352 1.824.576 3.075.576 3.329 0 1.061 2.38 1.824 4.269 1.824 1.89 0 7.12.361 7.856.361.737 0 6.063.911 7.899-.181 1.835-1.092-2.391-3.297-5.145-4.569Z"/><path fill="#FAFAFA" stroke="#22252A" stroke-linecap="round" stroke-linejoin="round" stroke-width="1.047" d="M97.622 137.091a50.2 50.2 0 0 0-4.92-6.934c-2.53-2.831-10.46-2.672-13.94 1.06-3.48 3.732-2.38 10.391-1.068 12.278 1.313 1.887 3.96 10.709 3.96 10.709l.63 6.298 14.74 5.195-3.01-10.231s5.71-1.061 6.18-2.831c.47-1.771-.95-7.719-.95-7.719s1.9-1.262 1.74-2.365c-.16-1.102-3.362-5.46-3.362-5.46Z"/><path fill="#22252A" stroke="#22252A" stroke-linecap="round" stroke-linejoin="round" stroke-width="1.047" d="M80.66 143.878s2.52 2.121 3.896-.307c1.377-2.428 2.423-4.803 2.423-6.86 0-2.057-5.177-3.764-1.73-5.143 3.448-1.378 5.935 1.686 7.472-1.389 1.537-3.074.139-3.403-8.144-3.403-8.282 0-12.424 4.114-10.673 9.256a69.056 69.056 0 0 0 5.177 10.964l1.58-3.118Z"/><path stroke="#22252A" stroke-linecap="round" stroke-linejoin="round" stroke-width="1.047" d="M98.083 140.729c0 .778-.232 1.538-.668 2.185a3.956 3.956 0 0 1-1.777 1.449 3.972 3.972 0 0 1-4.316-.853 3.91 3.91 0 0 1-.858-4.287c.3-.719.808-1.333 1.459-1.765a3.98 3.98 0 0 1 5 .489 3.92 3.92 0 0 1 1.16 2.782ZM97.523 137.24c.461-.187.954-.285 1.452-.286a3.74 3.74 0 0 1 2.277.777 3.681 3.681 0 0 1 1.14 4.382 3.71 3.71 0 0 1-1.613 1.775M90.176 140.729l-9.51 3.149"/><path fill="#FAFAFA" d="M83.403 145.923s-1.9-3.933-3.8-3.18c-1.9.752-.95 6.934.95 7.559a4.125 4.125 0 0 0 3.64-.943s1.59 3.308 3.49 4.241"/><path stroke="#22252A" stroke-linecap="round" stroke-linejoin="round" stroke-width="1.047" d="M83.403 145.923s-1.9-3.933-3.8-3.18c-1.9.752-.95 6.934.95 7.559a4.125 4.125 0 0 0 3.64-.943s1.59 3.308 3.49 4.241"/><path fill="#8BAA36" stroke="#22252A" stroke-linecap="round" stroke-linejoin="round" stroke-width="1.047" d="m70.927 216.613-1.185 15.077-3.544 22.319s8.283 6.457 16.01 6.457c7.728 0 9.852-.975 9.852-.975l4.334-22.902 4.333 24.079s8.539-1.368 14.196-2.746a37.572 37.572 0 0 0 11.037-5.09l-11.432-29.561-2.476-15.246s-12.808 1.176-20.504 1.569c-7.696.392-17.932-1.569-17.932-1.569l-2.69 8.588Z"/><path fill="#22252A" stroke="#22252A" stroke-linecap="round" stroke-linejoin="round" stroke-width="1.047" d="M79.058 156.368s18.145 6.287 23.749 12.395c3.095 3.393 6.564 26.613 7.813 32.285 1.249 5.673 3.426 16.965 3.426 16.965s-11.068 4.962-19.629 5.142c-8.56.181-24.986-3.721-24.986-3.721s1.953-25.161 1.953-36.856.181-19.329 2.135-23.05c.01.031 3.223-3.521 5.54-3.16Z"/><path stroke="#22252A" stroke-linecap="round" stroke-linejoin="round" stroke-width="1.047" d="M74.272 221.256s.982 16.445 0 22.521a46.496 46.496 0 0 1-3.544 11.355"/><path stroke="#22252A" stroke-linecap="round" stroke-linejoin="round" stroke-width="1.047" d="M74.683 229.092a9.042 9.042 0 0 0 3.842-2.553 8.955 8.955 0 0 0 2.07-4.106M67.18 250.828s9.862 8.418 25.232 5.301M100.296 255.714s16.16-1.76 23.258-6.457"/><path fill="#22252A" stroke="#22252A" stroke-linecap="round" stroke-linejoin="round" stroke-width="1.047" d="M172.584 148.755s-1.558 1.145-6.991 5.089c-5.433 3.945-1.153 9.903-1.153 9.903s-3.885.605-9.073 6.023c-5.187 5.418 2.317 14.717 9.329 16.169 7.013 1.453 15.21-7.167 17.665-15.162 2.455-7.995-.79-20.05-2.423-22.542-1.633-2.491-7.354.52-7.354.52Z"/><path fill="#22252A" stroke="#22252A" stroke-linecap="round" stroke-linejoin="round" stroke-width="1.047" d="M193.155 147.694s2.7-4.145.256-10.157c-2.444-6.012-9.745-8.758-16.854-4.4a12.452 12.452 0 0 0-5.227 6.082 12.366 12.366 0 0 0-.419 7.988c.694 2.777 4.195 7.05 4.931 7.114.737.064 7.13 2.375 11.496.35 4.365-2.025 5.817-6.977 5.817-6.977Z"/><path fill="#737373" stroke="#22252A" stroke-linecap="round" stroke-linejoin="round" stroke-width="1.047" d="M161.754 287.651s5.07 7.835 13.876 9.171c8.805 1.336.885-6.51-.598-7.698-1.484-1.187-12.083-3.753-13.278-1.473ZM208.662 289.665s9.68 2.364 8.933 4.442c-.747 2.079-8.635 1.92-13.246.732-4.611-1.188-8.944-2.958-8.346-4.877.597-1.919 12.659-.297 12.659-.297Z"/><path fill="#8BAA36" stroke="#22252A" stroke-linecap="round" stroke-linejoin="round" stroke-width="1.047" d="M181.138 163.281s-12.958 1.887-15.327 6.435c-2.37 4.549.971 29.328.971 29.328s-5.529 12.119-5.604 19.923c-.074 7.803 3.427 21.534 3.149 24.959-.278 3.424-3.821 42.411-3.821 43.471 0 1.061 7.471 3.436 18.241 4.708 10.77 1.272 31.37-2.534 31.37-2.534s-.406-23.008.672-36.728c1.078-13.72-.459-26.051-3.202-31.173-2.743-5.121-15.519-23.559-15.519-23.559s6.19-11.154 6.575-16.032c.384-4.877-1.612-7.422-6.287-13.031a16.292 16.292 0 0 0-5.024-4.007 16.376 16.376 0 0 0-6.194-1.76Z"/><path fill="#737373" stroke="#22252A" stroke-linecap="round" stroke-linejoin="round" stroke-width="1.047" d="M192.088 198.121s6.191-11.154 6.575-16.032c.384-4.877-1.611-7.422-6.287-13.031-.224-.275-.458-.519-.693-.774l-.171.159c-4.803 7.794-20.685 21.111-25.414 24.991.363 3.319.673 5.609.673 5.609s-5.529 12.119-5.604 19.923c.089 3.556.445 7.1 1.067 10.603 11.218-6.362 26.225-18.269 34.348-24.906-2.54-3.732-4.494-6.542-4.494-6.542Z"/><path fill="#FAFAFA" stroke="#22252A" stroke-linecap="round" stroke-linejoin="round" stroke-width="1.047" d="M178.747 154.183c.358 2.91.554 5.837.587 8.768-.171 2.174.534 7.136 4.27 8.695 3.735 1.558 6.083-.615 6.073-2.799a21.919 21.919 0 0 0-1.068-5.302l.107-5.99s-6.447-4.008-9.969-3.372Z"/><path fill="#FAFAFA" stroke="#22252A" stroke-linecap="round" stroke-linejoin="round" stroke-width="1.047" d="M175.395 150.292s-2.743-2.396-2.829 1.06c-.085 3.457 3.117 4.602 3.821 4.835a2.373 2.373 0 0 0 1.687-.413s4.974 4.241 8.966 4.517c3.991.275 5.614-1.559 6.553-8.758.939-7.2-6.543-14.505-6.543-14.505s-6.404 11.727-11.655 13.264ZM114.353 217.863a9.48 9.48 0 0 1 .598-3.605c.661-1.441 4.269-2.269 5.07-2.544.8-.276 1.206 0 .971.753a3.3 3.3 0 0 1-1.932 1.738 2.718 2.718 0 0 0-1.42.859c-.202.34-.074 2.513-1.067 3.436-.993.922-2.551.668-2.22-.637Z"/><path stroke="#22252A" stroke-linecap="round" stroke-linejoin="round" stroke-width="3.142" d="M196.147 185.981s-12.809-1.665-18.455 7.22c-5.646 8.885-16.202 39.973-35.767 44.978-19.565 5.004-25.158-34.99-36.898-33.877-11.186 1.061-19 0-25.713 12.215-3.586 6.542-21.518 77.973-29.993 78.705-26.993 2.343-44.37.816-44.37.816"/><path fill="#22252A" d="M79.895 156.877s-2.957-1.177-6.906 1.166-14.58 28.002-13.79 30.748c.79 2.746 12.018 7.836 18.326 9.596 6.309 1.76 17.74 3.923 17.74 3.923s3.544 5.481 4.728 5.672a25.818 25.818 0 0 0 5.124-.583s2.134 1.76 2.956-.201c.822-1.962-.79-4.496-2.561-6.457-1.772-1.962-9.265-2.937-9.265-2.937l-20.312-13.911 8.539-15.661"/><path stroke="#22252A" stroke-linecap="round" stroke-linejoin="round" stroke-width="1.047" d="M79.895 156.877s-2.957-1.177-6.906 1.166-14.58 28.002-13.79 30.748c.79 2.746 12.018 7.836 18.326 9.596 6.309 1.76 17.74 3.923 17.74 3.923s3.544 5.481 4.728 5.672a25.818 25.818 0 0 0 5.124-.583s2.134 1.76 2.956-.201c.822-1.962-.79-4.496-2.561-6.457-1.772-1.962-9.265-2.937-9.265-2.937l-20.312-13.911 8.539-15.661"/><path fill="#FAFAFA" stroke="#22252A" stroke-linecap="round" stroke-linejoin="round" stroke-width="1.047" d="M99.993 207.972a25.885 25.885 0 0 0 5.123-.584s2.135 1.761 2.957-.201c.822-1.962-.79-4.496-2.562-6.457-1.772-1.962-9.264-2.937-9.264-2.937l-20.312-13.9 3.031-5.609c-7.589-4.697-12.627-4.348-15.349-3.404-2.721 6.489-4.792 12.639-4.43 13.9.79 2.747 12.02 7.836 18.327 9.596 6.308 1.76 17.74 3.923 17.74 3.923s3.554 5.482 4.739 5.673Z"/><path fill="#22252A" stroke="#22252A" stroke-linecap="round" stroke-linejoin="round" stroke-width="1.047" d="M226.939 186.415c-.865-9.256-5.337-16.858-10.674-19.88l-.17-1.887-13.94 1.283c-7.845.721-13.257 11.419-12.093 23.888 1.163 12.469 8.464 21.98 16.309 21.205l13.94-1.282-.182-1.888c4.696-3.902 7.674-12.182 6.81-21.439Z"/><path fill="#FAFAFA" stroke="#22252A" stroke-linecap="round" stroke-linejoin="round" stroke-width="1.047" d="M233.254 185.865c-.907-9.723-5.337-17.728-10.983-20.909l-.192-1.983-5.967.552c-8.24.763-13.929 11.992-12.712 25.097 1.217 13.105 8.902 23.103 17.142 22.34l5.967-.552-.182-1.982c4.931-4.178 7.834-12.872 6.927-22.563Z"/><path fill="#FAFAFA" stroke="#22252A" stroke-linecap="round" stroke-linejoin="round" stroke-width="1.047" d="M239.23 185.28c1.228 13.106-4.461 24.334-12.712 25.097-8.251.764-15.925-9.245-17.174-22.34-1.249-13.094 4.462-24.386 12.702-25.097 8.24-.71 15.946 9.246 17.184 22.34Z"/><path fill="#737373" stroke="#22252A" stroke-linecap="round" stroke-linejoin="round" stroke-width="1.047" d="m245.636 177.626-23.151 2.121a2.495 2.495 0 0 1-1.816-.556 2.464 2.464 0 0 1-.325-3.475 2.485 2.485 0 0 1 1.682-.879l23.151-2.12a2.494 2.494 0 0 1 1.816.556 2.464 2.464 0 0 1 .786 2.628 2.46 2.46 0 0 1-1.214 1.452 2.48 2.48 0 0 1-.929.273ZM247.346 195.852l-23.151 2.12a2.475 2.475 0 0 1-1.816-.556 2.44 2.44 0 0 1-.884-1.67 2.445 2.445 0 0 1 1.312-2.41c.288-.151.604-.244.929-.273l23.151-2.12a2.507 2.507 0 0 1 1.81.562 2.445 2.445 0 0 1-.422 4.074 2.48 2.48 0 0 1-.929.273Z"/><path fill="#8BAA36" d="M173.135 165.009s-5.572 1.06-8.208 4.241c-2.637 3.181-8.048 27.726-6.799 30.547 1.248 2.82 21.261 6.361 27.441 6.87a89.36 89.36 0 0 0 14.879-.657s5.337-.138 6.799-.382c1.463-.244 4.152-1.675 4.195-2.216.043-.541-.224-1.834-2.22-1.993-1.996-.159-6.276-1.58-6.82-1.622a34.652 34.652 0 0 1 3.895-.785s.278-1.06-1.921-1.06-4.194-.149-5.027 1.06a18.203 18.203 0 0 0-1.516 2.969s-12.328.859-19.02-2.386c-6.692-3.244-8.806-4.326-8.806-4.326l4.803-19.085"/><path stroke="#22252A" stroke-linecap="round" stroke-linejoin="round" stroke-width="1.047" d="M173.135 165.009s-5.572 1.06-8.208 4.241c-2.637 3.181-8.048 27.726-6.799 30.547 1.248 2.82 21.261 6.361 27.441 6.87a89.36 89.36 0 0 0 14.879-.657s5.337-.138 6.799-.382c1.463-.244 4.152-1.675 4.195-2.216.043-.541-.224-1.834-2.22-1.993-1.996-.159-6.276-1.58-6.82-1.622a34.652 34.652 0 0 1 3.895-.785s.278-1.06-1.921-1.06-4.194-.149-5.027 1.06a18.203 18.203 0 0 0-1.516 2.969s-12.328.859-19.02-2.386c-6.692-3.244-8.806-4.326-8.806-4.326l4.803-19.085"/><path fill="#FAFAFA" stroke="#22252A" stroke-linecap="round" stroke-linejoin="round" stroke-width="1.047" d="M207.219 205.66c1.484-.244 4.152-1.675 4.195-2.216.043-.541-.224-1.834-2.22-1.993-1.996-.16-6.276-1.58-6.82-1.623a34.873 34.873 0 0 1 3.895-.784s.278-1.061-1.921-1.061-4.195-.148-5.027 1.061a18.194 18.194 0 0 0-1.516 2.968s-12.328.859-19.02-2.385c-6.692-3.245-8.806-4.326-8.806-4.326l2.925-11.663a42.048 42.048 0 0 0-11.923-2.937c-1.995 7.994-3.629 17.41-2.881 19.085 1.238 2.82 21.261 6.362 27.441 6.87 4.97.196 9.947-.024 14.879-.657 0 0 5.348-.095 6.799-.339ZM117.052 215.806s-4.12 3.064-3.49 5.09c.629 2.025 4.066-2.121 4.92-3.34.854-1.22.182-3.064-1.43-1.75Z"/><path fill="#FAFAFA" stroke="#22252A" stroke-linecap="round" stroke-linejoin="round" stroke-width="1.047" d="M117.873 218.552s-4.109 3.064-3.49 5.09c.619 2.025 4.077-2.121 4.92-3.34.844-1.22.182-3.086-1.43-1.75Z"/><path fill="#FAFAFA" stroke="#22252A" stroke-linecap="round" stroke-linejoin="round" stroke-width="1.047" d="M119.825 220.333s-4.11 3.065-3.48 5.09c.63 2.025 4.067-2.121 4.92-3.34.854-1.219.182-3.086-1.44-1.75Z"/><path fill="#FAFAFA" stroke="#22252A" stroke-linecap="round" stroke-linejoin="round" stroke-width="1.047" d="M121.43 221.776s-3.555 2.269-2.957 3.944c.598 1.675 3.533-1.495 4.269-2.471.737-.975.139-2.544-1.312-1.473Z"/></svg>