<svg width="84" height="84" viewBox="0 0 84 84" fill="none" xmlns="http://www.w3.org/2000/svg">
<path d="M74 29.9999V17.9759C74 15.8584 73.1605 13.8272 71.6654 12.3276C70.1703 10.828 68.1416 9.98229 66.024 9.97594L54 9.93994M74 53.9999V65.9999C74 68.1217 73.1572 70.1565 71.6569 71.6568C70.1566 73.1571 68.1217 73.9999 66 73.9999H54M30 9.93994L17.976 9.97994C15.8584 9.98629 13.8298 10.832 12.3347 12.3316C10.8395 13.8312 9.99999 15.8624 10 17.9799V29.9999M30 73.9999H18C15.8783 73.9999 13.8434 73.1571 12.3431 71.6568C10.8429 70.1565 10 68.1217 10 65.9999V53.9999" stroke="#C4C4C4" stroke-width="2" stroke-linecap="round" stroke-linejoin="round"/>
<path d="M41.75 49.2188C43.3906 49.2188 44.7854 48.6448 45.9342 47.4967C47.0823 46.3479 47.6562 44.9531 47.6562 43.3125C47.6562 41.6719 47.0823 40.2771 45.9342 39.1283C44.7854 37.9803 43.3906 37.4062 41.75 37.4062C40.1094 37.4062 38.7146 37.9803 37.5658 39.1283C36.4178 40.2771 35.8438 41.6719 35.8438 43.3125C35.8438 44.9531 36.4178 46.3479 37.5658 47.4967C38.7146 48.6448 40.1094 49.2188 41.75 49.2188ZM31.25 53.8125C30.5281 53.8125 29.9104 53.5557 29.3968 53.0421C28.8823 52.5276 28.625 51.9094 28.625 51.1875V35.4375C28.625 34.7156 28.8823 34.0979 29.3968 33.5842C29.9104 33.0697 30.5281 32.8125 31.25 32.8125H35.3844L37.8125 30.1875H45.6875L48.1156 32.8125H52.25C52.9719 32.8125 53.5901 33.0697 54.1046 33.5842C54.6182 34.0979 54.875 34.7156 54.875 35.4375V51.1875C54.875 51.9094 54.6182 52.5276 54.1046 53.0421C53.5901 53.5557 52.9719 53.8125 52.25 53.8125H31.25Z" fill="#C4C4C4"/>
</svg>
