<svg aria-hidden="true" style="position: absolute; width: 0; height: 0; overflow: hidden;" version="1.1" xmlns="http://www.w3.org/2000/svg" xmlns:xlink="http://www.w3.org/1999/xlink">
<defs>
<symbol id="ph-apple-57px" viewBox="0 0 32 32">
<path fill="#fff" style="fill: var(--color1, #fff); stroke: var(--color2, #8baa36)" opacity="0.5" stroke="#8baa36" stroke-linejoin="miter" stroke-linecap="butt" stroke-miterlimit="4" stroke-width="0.5614" d="M4.491 0.281h23.018c2.325 0 4.211 1.885 4.211 4.211v23.018c0 2.325-1.885 4.211-4.211 4.211h-23.018c-2.325 0-4.211-1.885-4.211-4.211v-23.018c0-2.325 1.885-4.211 4.211-4.211z"></path>
<path fill="none" stroke="#8baa36" style="stroke: var(--color2, #8baa36)" stroke-linejoin="miter" stroke-linecap="round" stroke-miterlimit="4" stroke-width="0.7298" d="M18.316 9.825l-0.119 0.040c-1.312 0.437-2.197 1.665-2.197 3.048v-1.961c0-1.104-0.779-2.054-1.862-2.271l-1.998-0.4v0.417c0 1.104 0.779 2.054 1.862 2.271l1.998 0.4M18.965 11.946c0.808-0.055 1.599 0.253 2.156 0.842 0.522 0.552 0.817 1.277 0.829 2.033l-0.002 0.175-0.020 0.488c-0.043 1.042-0.21 2.074-0.499 3.075l-0.114 0.374-0.283 0.882c-0.349 1.086-1.216 1.927-2.312 2.244-0.465 0.134-1.099 0.105-1.902-0.087l-0.223-0.056c-0.39-0.104-0.801-0.104-1.191 0-0.909 0.242-1.618 0.29-2.125 0.143-1.096-0.316-1.963-1.157-2.312-2.244l-0.283-0.882c-0.359-1.117-0.565-2.276-0.613-3.448l-0.020-0.488c-0.033-0.817 0.265-1.613 0.827-2.207 0.557-0.588 1.348-0.897 2.156-0.842l0.477 0.033c0.686 0.047 1.516 0.55 2.489 1.51 0.901-0.915 1.67-1.412 2.307-1.493l0.18-0.018 0.477-0.033z"></path>
</symbol>
<symbol id="ph-apple-60px" viewBox="0 0 32 32">
<path fill="#ebf3d4" style="fill: var(--color3, #ebf3d4); stroke: var(--color2, #8baa36)" stroke="#8baa36" stroke-linejoin="miter" stroke-linecap="butt" stroke-miterlimit="4" stroke-width="0.5333" d="M4.267 0.267h23.467c2.209 0 4 1.791 4 4v23.467c0 2.209-1.791 4-4 4h-23.467c-2.209 0-4-1.791-4-4v-23.467c0-2.209 1.791-4 4-4z"></path>
<path fill="none" stroke="#8baa36" style="stroke: var(--color2, #8baa36)" stroke-linejoin="miter" stroke-linecap="round" stroke-miterlimit="4" stroke-width="0.8" d="M18.133 10.311l-0.11 0.036c-1.209 0.403-2.024 1.534-2.024 2.808v-1.807c0-1.017-0.718-1.892-1.715-2.092l-1.841-0.368v0.384c0 1.017 0.718 1.892 1.715 2.092l1.841 0.368M18.732 12.266c0.745-0.051 1.473 0.233 1.986 0.775 0.481 0.508 0.752 1.177 0.764 1.872l-0.002 0.161-0.018 0.449c-0.039 0.96-0.194 1.91-0.459 2.832l-0.105 0.344-0.261 0.813c-0.322 1.001-1.12 1.775-2.13 2.067-0.429 0.124-1.013 0.097-1.753-0.080l-0.206-0.052c-0.36-0.096-0.738-0.096-1.097 0-0.838 0.223-1.49 0.267-1.958 0.132-1.010-0.291-1.808-1.066-2.13-2.067l-0.261-0.813c-0.331-1.029-0.52-2.097-0.564-3.177l-0.018-0.449c-0.031-0.753 0.244-1.486 0.762-2.033 0.513-0.542 1.242-0.826 1.986-0.775l0.44 0.030c0.632 0.043 1.396 0.507 2.293 1.391 0.83-0.843 1.538-1.301 2.125-1.375l0.166-0.016 0.44-0.030z"></path>
</symbol>
<symbol id="ph-apple-93px" viewBox="0 0 31 32">
<path fill="#ebf3d4" style="fill: var(--color3, #ebf3d4); stroke: var(--color2, #8baa36)" stroke="#8baa36" stroke-linejoin="miter" stroke-linecap="butt" stroke-miterlimit="4" stroke-width="0.3299" d="M2.639 0.165h25.402c1.366 0 2.474 1.108 2.474 2.474v26.722c0 1.366-1.108 2.474-2.474 2.474h-25.402c-1.366 0-2.474-1.108-2.474-2.474v-26.722c0-1.366 1.108-2.474 2.474-2.474z"></path>
<path fill="none" stroke="#8baa36" style="stroke: var(--color2, #8baa36)" stroke-linejoin="miter" stroke-linecap="round" stroke-miterlimit="4" stroke-width="0.6598" d="M17.361 10.612l-0.104 0.035c-1.145 0.382-1.917 1.453-1.917 2.66v-1.711c0-0.963-0.68-1.792-1.624-1.981l-1.743-0.349v0.364c0 0.963 0.68 1.792 1.624 1.981l1.743 0.349M17.928 12.463c0.705-0.048 1.395 0.221 1.881 0.734 0.456 0.481 0.713 1.115 0.724 1.773l-0.002 0.152-0.017 0.425c-0.037 0.909-0.183 1.81-0.435 2.683l-0.099 0.326-0.247 0.77c-0.305 0.948-1.061 1.682-2.017 1.958-0.406 0.117-0.959 0.092-1.66-0.076l-0.195-0.049c-0.341-0.091-0.699-0.091-1.039 0-0.793 0.211-1.411 0.253-1.854 0.125-0.956-0.276-1.713-1.010-2.017-1.958l-0.247-0.77c-0.313-0.974-0.493-1.986-0.535-3.009l-0.017-0.425c-0.029-0.713 0.231-1.408 0.722-1.926 0.486-0.513 1.176-0.783 1.881-0.734l0.416 0.028c0.599 0.041 1.322 0.48 2.172 1.318 0.786-0.798 1.457-1.232 2.013-1.303l0.157-0.015 0.416-0.028z"></path>
</symbol>
<symbol id="ph-apple-112px" viewBox="0 0 32 32">
<path fill="#fff" style="fill: var(--color1, #fff)" opacity="0.5" d="M2.286 0.143h27.429c1.183 0 2.143 0.959 2.143 2.143v27.429c0 1.183-0.959 2.143-2.143 2.143h-27.429c-1.183 0-2.143-0.959-2.143-2.143v-27.429c0-1.183 0.959-2.143 2.143-2.143z"></path>
<path fill="none" stroke="#8baa36" style="stroke: var(--color2, #8baa36)" stroke-linejoin="miter" stroke-linecap="round" stroke-miterlimit="4" stroke-width="0.5714" d="M18 10.667l-0.103 0.034c-1.133 0.378-1.897 1.438-1.897 2.632v-1.694c0-0.953-0.673-1.774-1.608-1.961l-1.726-0.345v0.36c0 0.953 0.673 1.774 1.608 1.961l1.726 0.345M18.561 12.499c0.698-0.048 1.381 0.219 1.862 0.727 0.451 0.476 0.705 1.103 0.716 1.755l-0.002 0.151-0.017 0.421c-0.037 0.9-0.181 1.791-0.431 2.655l-0.098 0.323-0.245 0.762c-0.301 0.938-1.050 1.664-1.997 1.938-0.402 0.116-0.95 0.091-1.643-0.075l-0.193-0.049c-0.337-0.090-0.692-0.090-1.029 0-0.785 0.209-1.397 0.25-1.835 0.124-0.947-0.273-1.695-1-1.997-1.938l-0.245-0.762c-0.31-0.964-0.488-1.966-0.529-2.978l-0.017-0.421c-0.029-0.706 0.229-1.393 0.715-1.906 0.481-0.508 1.164-0.775 1.862-0.727l0.412 0.028c0.592 0.041 1.309 0.475 2.149 1.304 0.778-0.79 1.442-1.22 1.993-1.289l0.156-0.015 0.412-0.028z"></path>
</symbol>
<symbol id="ph-apple-128px" viewBox="0 0 32 32">
<path fill="#fff" style="fill: var(--color1, #fff)" opacity="0.5" d="M2 0.125h28c1.036 0 1.875 0.839 1.875 1.875v28c0 1.036-0.839 1.875-1.875 1.875h-28c-1.036 0-1.875-0.839-1.875-1.875v-28c0-1.036 0.839-1.875 1.875-1.875z"></path>
<path fill="none" stroke="#8baa36" style="stroke: var(--color2, #8baa36)" stroke-linejoin="miter" stroke-linecap="round" stroke-miterlimit="4" stroke-width="0.5" d="M17.875 11l-0.096 0.032c-1.062 0.354-1.779 1.348-1.779 2.468v-1.588c0-0.894-0.631-1.663-1.507-1.839l-1.618-0.324v0.338c0 0.894 0.631 1.663 1.507 1.839l1.618 0.324M18.401 12.718c0.654-0.045 1.295 0.205 1.746 0.681 0.423 0.447 0.661 1.034 0.672 1.646l-0.002 0.141-0.016 0.395c-0.034 0.843-0.17 1.679-0.404 2.489l-0.092 0.303-0.229 0.714c-0.283 0.879-0.984 1.56-1.872 1.817-0.377 0.109-0.89 0.085-1.54-0.070l-0.181-0.046c-0.316-0.084-0.648-0.084-0.964 0-0.736 0.196-1.31 0.235-1.721 0.116-0.887-0.256-1.589-0.937-1.872-1.817l-0.229-0.714c-0.29-0.904-0.457-1.843-0.496-2.792l-0.016-0.395c-0.027-0.662 0.215-1.306 0.67-1.787 0.451-0.476 1.091-0.726 1.746-0.681l0.386 0.026c0.555 0.038 1.227 0.446 2.015 1.223 0.729-0.741 1.352-1.144 1.868-1.209l0.146-0.014 0.386-0.026z"></path>
</symbol>
<symbol id="ph-banana-57px" viewBox="0 0 32 32">
<path fill="#fff" style="fill: var(--color1, #fff); stroke: var(--color2, #8baa36)" opacity="0.5" stroke="#8baa36" stroke-linejoin="miter" stroke-linecap="butt" stroke-miterlimit="4" stroke-width="0.5614" d="M4.491 0.281h23.018c2.325 0 4.211 1.885 4.211 4.211v23.018c0 2.325-1.885 4.211-4.211 4.211h-23.018c-2.325 0-4.211-1.885-4.211-4.211v-23.018c0-2.325 1.885-4.211 4.211-4.211z"></path>
<path fill="none" stroke="#8baa36" style="stroke: var(--color2, #8baa36)" stroke-linejoin="miter" stroke-linecap="round" stroke-miterlimit="4" stroke-width="0.7298" d="M11.783 14.345c-0.262 0.262-0.48 0.549-0.653 0.848 1.078-0.813 2.462-0.867 3.263-0.067 0.387 0.387 0.574 0.911 0.573 1.472 0.624-0.506 1.191-1.078 1.692-1.707-0.105-0.379-0.298-0.724-0.581-1.007-1.058-1.058-2.981-0.852-4.294 0.461zM20.156 15.653l-0.113 0.271c-0.192 0.435-0.422 0.85-0.686 1.241l-0.049-0.051c0.21 0.21 0.382 0.444 0.516 0.695 0.192-0.058 0.393-0.088 0.6-0.088 1.063 0 1.973 0.804 2.347 1.944 0.033-0.21 0.051-0.428 0.051-0.651 0-1.857-1.213-3.363-2.71-3.363l0.044 0.002zM19.914 9.683c0.411 0.091 0.71 0.447 0.729 0.867l0.078 1.757c0.080 1.793-0.432 3.475-1.363 4.858l-0.049-0.051c-1.219-1.219-3.272-1.16-4.685 0.096l0.121 0.001c0.644 0.018 1.257 0.255 1.72 0.718 0.394 0.394 0.624 0.896 0.695 1.433-1.187 0.798-2.601 1.291-4.135 1.359-0.239 0.011-0.479 0.011-0.718 0l-1.757-0.078c-0.513-0.023-0.911-0.458-0.888-0.971 0.019-0.421 0.318-0.776 0.729-0.867 4.203-0.93 7.485-4.212 8.414-8.414 0.111-0.502 0.608-0.819 1.11-0.708zM14.623 17.21l0.121 0.001c0.644 0.018 1.257 0.255 1.72 0.718 1.058 1.058 0.934 2.899-0.279 4.112-0.35 0.35-0.753 0.61-1.175 0.776 1.257 0.596 2.895 0.299 4.036-0.842 1.414-1.414 1.531-3.591 0.261-4.861-1.219-1.219-3.272-1.16-4.685 0.096z"></path>
</symbol>
<symbol id="ph-banana-60px" viewBox="0 0 32 32">
<path fill="#ebf3d4" style="fill: var(--color3, #ebf3d4); stroke: var(--color2, #8baa36)" stroke="#8baa36" stroke-linejoin="miter" stroke-linecap="butt" stroke-miterlimit="4" stroke-width="0.5333" d="M4.267 0.267h23.467c2.209 0 4 1.791 4 4v23.467c0 2.209-1.791 4-4 4h-23.467c-2.209 0-4-1.791-4-4v-23.467c0-2.209 1.791-4 4-4z"></path>
<path fill="none" stroke="#8baa36" style="stroke: var(--color2, #8baa36)" stroke-linejoin="miter" stroke-linecap="round" stroke-miterlimit="4" stroke-width="0.8" d="M12.116 14.475c-0.242 0.242-0.443 0.506-0.601 0.781 0.993-0.749 2.268-0.799 3.005-0.062 0.357 0.357 0.529 0.84 0.528 1.356 0.575-0.466 1.098-0.993 1.559-1.573-0.097-0.349-0.274-0.667-0.535-0.928-0.975-0.975-2.746-0.785-3.956 0.425zM19.829 15.681l-0.104 0.249c-0.177 0.401-0.389 0.783-0.632 1.143l-0.045-0.047c0.193 0.193 0.352 0.409 0.475 0.64 0.177-0.053 0.362-0.081 0.553-0.081 0.979 0 1.817 0.741 2.162 1.791 0.030-0.194 0.047-0.394 0.047-0.599 0-1.711-1.118-3.098-2.497-3.098l0.041 0.002zM19.606 10.18c0.379 0.084 0.654 0.411 0.671 0.799l0.072 1.619c0.074 1.652-0.398 3.202-1.256 4.475l-0.045-0.047c-1.123-1.123-3.014-1.069-4.316 0.088l0.112 0.001c0.594 0.017 1.158 0.235 1.585 0.661 0.363 0.363 0.575 0.825 0.64 1.32-1.093 0.736-2.397 1.189-3.81 1.252-0.22 0.010-0.441 0.010-0.662 0l-1.619-0.072c-0.473-0.021-0.839-0.422-0.818-0.895 0.017-0.388 0.293-0.715 0.671-0.799 3.871-0.856 6.895-3.88 7.751-7.751 0.102-0.462 0.56-0.754 1.022-0.652zM14.732 17.114l0.112 0.001c0.594 0.017 1.158 0.235 1.585 0.661 0.975 0.975 0.86 2.671-0.257 3.788-0.323 0.323-0.694 0.562-1.083 0.715 1.158 0.549 2.667 0.276 3.718-0.776 1.303-1.303 1.411-3.308 0.24-4.478-1.123-1.123-3.014-1.069-4.316 0.088z"></path>
</symbol>
<symbol id="ph-banana-93px" viewBox="0 0 31 32">
<path fill="#ebf3d4" style="fill: var(--color3, #ebf3d4); stroke: var(--color2, #8baa36)" stroke="#8baa36" stroke-linejoin="miter" stroke-linecap="butt" stroke-miterlimit="4" stroke-width="0.3299" d="M2.639 0.165h25.402c1.366 0 2.474 1.108 2.474 2.474v26.722c0 1.366-1.108 2.474-2.474 2.474h-25.402c-1.366 0-2.474-1.108-2.474-2.474v-26.722c0-1.366 1.108-2.474 2.474-2.474z"></path>
<path fill="none" stroke="#8baa36" style="stroke: var(--color2, #8baa36)" stroke-linejoin="miter" stroke-linecap="round" stroke-miterlimit="4" stroke-width="0.6598" d="M11.661 14.556c-0.229 0.229-0.419 0.479-0.569 0.74 0.941-0.71 2.148-0.757 2.847-0.059 0.338 0.338 0.501 0.795 0.5 1.285 0.544-0.441 1.040-0.941 1.477-1.49-0.092-0.331-0.26-0.632-0.507-0.879-0.924-0.924-2.601-0.743-3.747 0.403zM18.967 15.698l-0.099 0.236c-0.168 0.379-0.369 0.742-0.599 1.083l-0.042-0.045c0.183 0.183 0.333 0.387 0.45 0.607 0.168-0.050 0.343-0.077 0.524-0.077 0.927 0 1.721 0.702 2.048 1.696 0.029-0.183 0.044-0.373 0.044-0.568 0-1.621-1.059-2.934-2.365-2.934l0.039 0.002zM18.756 10.488c0.359 0.079 0.619 0.39 0.636 0.757l0.068 1.533c0.070 1.565-0.377 3.033-1.189 4.239l-0.043-0.044c-1.063-1.063-2.855-1.013-4.088 0.083l0.106 0.001c0.562 0.016 1.097 0.222 1.501 0.626 0.343 0.343 0.544 0.781 0.606 1.25-1.036 0.697-2.27 1.127-3.608 1.186-0.209 0.009-0.418 0.009-0.627 0l-1.533-0.068c-0.448-0.020-0.795-0.399-0.775-0.847 0.016-0.367 0.277-0.677 0.636-0.757 3.667-0.811 6.531-3.675 7.342-7.342 0.097-0.438 0.53-0.714 0.968-0.617zM14.139 17.055l0.106 0.001c0.562 0.016 1.097 0.222 1.501 0.626 0.924 0.924 0.815 2.53-0.243 3.587-0.306 0.306-0.657 0.532-1.025 0.677 1.097 0.52 2.526 0.261 3.522-0.735 1.234-1.234 1.336-3.133 0.228-4.241-1.063-1.063-2.855-1.013-4.088 0.083z"></path>
</symbol>
<symbol id="ph-banana-112px" viewBox="0 0 32 32">
<path fill="#fff" style="fill: var(--color1, #fff)" opacity="0.5" d="M2.286 0.143h27.429c1.183 0 2.143 0.959 2.143 2.143v27.429c0 1.183-0.959 2.143-2.143 2.143h-27.429c-1.183 0-2.143-0.959-2.143-2.143v-27.429c0-1.183 0.959-2.143 2.143-2.143z"></path>
<path fill="none" stroke="#8baa36" style="stroke: var(--color2, #8baa36)" stroke-linejoin="miter" stroke-linecap="round" stroke-miterlimit="4" stroke-width="0.5714" d="M12.358 14.57c-0.227 0.227-0.415 0.474-0.563 0.732 0.931-0.702 2.127-0.749 2.818-0.058 0.335 0.335 0.496 0.787 0.495 1.271 0.539-0.437 1.029-0.931 1.462-1.474-0.091-0.327-0.257-0.625-0.502-0.87-0.914-0.914-2.575-0.736-3.709 0.399zM19.589 15.701l-0.098 0.234c-0.166 0.376-0.365 0.734-0.592 1.072l-0.042-0.044c0.181 0.181 0.33 0.384 0.445 0.6 0.166-0.050 0.34-0.076 0.518-0.076 0.918 0 1.704 0.695 2.027 1.679 0.029-0.181 0.044-0.369 0.044-0.562 0-1.604-1.048-2.904-2.341-2.904l0.038 0.002zM19.38 10.544c0.355 0.079 0.613 0.386 0.629 0.749l0.068 1.517c0.069 1.549-0.373 3.002-1.177 4.196l-0.042-0.044c-1.053-1.053-2.826-1.002-4.046 0.083l0.105 0.001c0.557 0.016 1.086 0.22 1.486 0.62 0.34 0.34 0.539 0.773 0.6 1.238-1.025 0.69-2.247 1.115-3.571 1.174-0.207 0.009-0.414 0.009-0.62 0l-1.517-0.068c-0.443-0.020-0.787-0.395-0.767-0.839 0.016-0.363 0.274-0.67 0.629-0.749 3.63-0.803 6.464-3.637 7.267-7.267 0.096-0.433 0.525-0.707 0.958-0.611zM14.811 17.045l0.105 0.001c0.557 0.016 1.086 0.22 1.486 0.62 0.914 0.914 0.806 2.504-0.241 3.551-0.303 0.303-0.65 0.527-1.015 0.671 1.086 0.515 2.5 0.259 3.486-0.727 1.221-1.221 1.322-3.101 0.225-4.198-1.053-1.053-2.825-1.002-4.046 0.083z"></path>
</symbol>
<symbol id="ph-banana-128px" viewBox="0 0 32 32">
<path fill="#fff" style="fill: var(--color1, #fff)" opacity="0.5" d="M2 0.125h28c1.036 0 1.875 0.839 1.875 1.875v28c0 1.036-0.839 1.875-1.875 1.875h-28c-1.036 0-1.875-0.839-1.875-1.875v-28c0-1.036 0.839-1.875 1.875-1.875z"></path>
<path fill="none" stroke="#8baa36" style="stroke: var(--color2, #8baa36)" stroke-linejoin="miter" stroke-linecap="round" stroke-miterlimit="4" stroke-width="0.5" d="M12.586 14.66c-0.212 0.212-0.389 0.444-0.528 0.687 0.873-0.658 1.994-0.702 2.642-0.054 0.314 0.314 0.465 0.738 0.464 1.192 0.505-0.41 0.965-0.873 1.37-1.382-0.085-0.307-0.241-0.586-0.47-0.816-0.857-0.857-2.414-0.69-3.477 0.374zM19.365 15.719l-0.091 0.219c-0.156 0.352-0.342 0.688-0.555 1.005l-0.039-0.042c0.17 0.17 0.309 0.36 0.418 0.563 0.156-0.047 0.319-0.071 0.486-0.071 0.861 0 1.597 0.651 1.9 1.574 0.027-0.17 0.041-0.346 0.041-0.527 0-1.504-0.983-2.723-2.195-2.723l0.036 0.001zM19.169 10.885c0.333 0.074 0.575 0.362 0.59 0.702l0.063 1.423c0.065 1.452-0.35 2.814-1.104 3.933l-0.040-0.041c-0.987-0.987-2.649-0.94-3.793 0.077l0.098 0.001c0.522 0.015 1.018 0.206 1.393 0.581 0.319 0.319 0.505 0.725 0.563 1.16-0.961 0.646-2.106 1.045-3.348 1.101-0.194 0.009-0.388 0.009-0.581 0l-1.423-0.063c-0.416-0.019-0.738-0.371-0.719-0.786 0.015-0.341 0.257-0.628 0.59-0.702 3.403-0.753 6.060-3.41 6.813-6.813 0.090-0.406 0.492-0.663 0.898-0.573zM14.886 16.979l0.098 0.001c0.522 0.015 1.018 0.206 1.393 0.581 0.857 0.857 0.756 2.347-0.226 3.329-0.284 0.284-0.61 0.494-0.951 0.629 1.018 0.482 2.344 0.242 3.268-0.682 1.145-1.145 1.24-2.907 0.211-3.936-0.987-0.987-2.649-0.94-3.793 0.077z"></path>
</symbol>
<symbol id="ph-citrus-57px" viewBox="0 0 32 32">
<path fill="#fff" style="fill: var(--color1, #fff); stroke: var(--color2, #8baa36)" opacity="0.5" stroke="#8baa36" stroke-linejoin="miter" stroke-linecap="butt" stroke-miterlimit="4" stroke-width="0.5614" d="M4.491 0.281h23.018c2.325 0 4.211 1.885 4.211 4.211v23.018c0 2.325-1.885 4.211-4.211 4.211h-23.018c-2.325 0-4.211-1.885-4.211-4.211v-23.018c0-2.325 1.885-4.211 4.211-4.211z"></path>
<path fill="none" stroke="#8baa36" style="stroke: var(--color2, #8baa36)" stroke-linejoin="miter" stroke-linecap="round" stroke-miterlimit="4" stroke-width="0.7298" d="M14.456 11.368c2.984 0 5.404 2.419 5.404 5.404 0 0.289-0.023 0.573-0.066 0.85l-2.469-2.468c-0.818 0.818-1.324 1.949-1.324 3.197 0 1.187 0.457 2.267 1.205 3.073-0.805 0.477-1.745 0.751-2.749 0.751-2.984 0-5.403-2.419-5.403-5.404s2.419-5.404 5.404-5.404zM14.456 11.368l-1.998-0.4c-1.082-0.216-1.862-1.167-1.862-2.271v-0.417l1.998 0.4c1.082 0.216 1.862 1.167 1.862 2.271v1.189M14.456 11.368v0.772M14.456 12.14c0-0.946 0.535-1.811 1.381-2.234l0.163-0.082M18.308 16.212l-0.040-0.040c-0.295-0.295-0.61-0.61-0.944-0.944-0.818 0.818-1.324 1.949-1.324 3.197 0 0.302 0.030 0.597 0.086 0.882 0.058 0.294 0.145 0.578 0.257 0.849 0.229 0.553 0.565 1.050 0.981 1.467s0.914 0.752 1.467 0.981c0.271 0.112 0.554 0.199 0.849 0.257 0.285 0.056 0.58 0.086 0.882 0.086 1.249 0 2.379-0.506 3.197-1.324-0.334-0.334-0.649-0.649-0.944-0.944l-0.040-0.040M18.308 16.212c-0.567 0.567-0.917 1.349-0.917 2.214M18.308 16.212l0.178 0.178c0.071 0.071 0.141 0.141 0.21 0.21l0.398 0.398c0.064 0.064 0.127 0.127 0.188 0.188l0.83 0.83c0.148 0.147 0.284 0.284 0.409 0.409M17.391 18.425c0 1.729 1.402 3.131 3.131 3.131M17.391 18.425c0 0.209 0.020 0.413 0.060 0.611l3.071-0.611M20.522 21.556c0.864 0 1.647-0.35 2.214-0.917M20.522 21.556c-0.425 0-0.829-0.084-1.198-0.238l1.198-2.893M22.735 20.639l-0.178-0.178c-0.071-0.071-0.141-0.141-0.21-0.21l-0.398-0.398c-0.064-0.064-0.127-0.127-0.188-0.188l-0.83-0.83c-0.147-0.148-0.284-0.284-0.409-0.409"></path>
</symbol>
<symbol id="ph-citrus-60px" viewBox="0 0 32 32">
<path fill="#ebf3d4" style="fill: var(--color3, #ebf3d4); stroke: var(--color2, #8baa36)" stroke="#8baa36" stroke-linejoin="miter" stroke-linecap="butt" stroke-miterlimit="4" stroke-width="0.5333" d="M4.267 0.267h23.467c2.209 0 4 1.791 4 4v23.467c0 2.209-1.791 4-4 4h-23.467c-2.209 0-4-1.791-4-4v-23.467c0-2.209 1.791-4 4-4z"></path>
<path fill="none" stroke="#8baa36" style="stroke: var(--color2, #8baa36)" stroke-linejoin="miter" stroke-linecap="round" stroke-miterlimit="4" stroke-width="0.8" d="M14.578 11.733c2.749 0 4.978 2.229 4.978 4.978 0 0.266-0.021 0.528-0.061 0.783l-2.274-2.274c-0.754 0.754-1.22 1.795-1.22 2.946 0 1.093 0.421 2.088 1.11 2.831-0.742 0.44-1.607 0.692-2.532 0.692-2.749 0-4.978-2.229-4.978-4.978s2.229-4.978 4.978-4.978zM14.578 11.733l-1.841-0.368c-0.997-0.199-1.715-1.075-1.715-2.092v-0.384l1.841 0.368c0.997 0.199 1.715 1.075 1.715 2.092v1.096M14.578 11.733v0.711M14.578 12.444c0-0.872 0.492-1.668 1.272-2.058l0.15-0.075M18.126 16.195l-0.037-0.037c-0.272-0.272-0.562-0.562-0.87-0.87-0.754 0.754-1.22 1.795-1.22 2.946 0 0.278 0.027 0.55 0.079 0.813 0.054 0.271 0.133 0.532 0.237 0.782 0.211 0.509 0.52 0.967 0.904 1.351s0.842 0.693 1.351 0.904c0.249 0.103 0.511 0.183 0.782 0.237 0.263 0.052 0.535 0.079 0.813 0.079 1.15 0 2.192-0.466 2.945-1.22-0.308-0.308-0.598-0.598-0.87-0.87l-0.037-0.037M18.126 16.195c-0.522 0.522-0.845 1.243-0.845 2.039M18.126 16.195l0.164 0.164c0.066 0.066 0.13 0.13 0.194 0.194l0.367 0.367c0.059 0.059 0.117 0.117 0.173 0.173l0.764 0.764c0.136 0.136 0.262 0.262 0.377 0.377M17.282 18.234c0 1.593 1.291 2.884 2.884 2.884M17.282 18.234c0 0.193 0.019 0.381 0.055 0.563l2.829-0.563M20.166 21.118c0.796 0 1.517-0.323 2.039-0.845M20.166 21.118c-0.391 0-0.764-0.078-1.104-0.219l1.104-2.665M22.205 20.274l-0.164-0.164c-0.066-0.066-0.13-0.13-0.194-0.194l-0.367-0.367c-0.059-0.059-0.117-0.117-0.173-0.173l-0.764-0.764c-0.136-0.136-0.262-0.262-0.377-0.377"></path>
</symbol>
<symbol id="ph-citrus-93px" viewBox="0 0 31 32">
<path fill="#ebf3d4" style="fill: var(--color3, #ebf3d4); stroke: var(--color2, #8baa36)" stroke="#8baa36" stroke-linejoin="miter" stroke-linecap="butt" stroke-miterlimit="4" stroke-width="0.3299" d="M2.639 0.165h25.402c1.366 0 2.474 1.108 2.474 2.474v26.722c0 1.366-1.108 2.474-2.474 2.474h-25.402c-1.366 0-2.474-1.108-2.474-2.474v-26.722c0-1.366 1.108-2.474 2.474-2.474z"></path>
<path fill="none" stroke="#8baa36" style="stroke: var(--color2, #8baa36)" stroke-linejoin="miter" stroke-linecap="round" stroke-miterlimit="4" stroke-width="0.6598" d="M13.993 11.959c2.604 0 4.715 2.111 4.715 4.715 0 0.252-0.020 0.5-0.058 0.742l-2.154-2.153c-0.714 0.714-1.156 1.7-1.156 2.79 0 1.035 0.399 1.978 1.051 2.682-0.702 0.416-1.523 0.655-2.398 0.655-2.604 0-4.715-2.111-4.715-4.715s2.111-4.715 4.715-4.715zM13.993 11.959l-1.743-0.349c-0.944-0.189-1.624-1.018-1.624-1.981v-0.364l1.743 0.349c0.944 0.189 1.624 1.018 1.624 1.981v1.038M13.993 11.959v0.674M13.993 12.632c0-0.826 0.466-1.58 1.205-1.95l0.142-0.071M17.354 16.185l-0.035-0.035c-0.257-0.257-0.532-0.532-0.824-0.824-0.714 0.714-1.156 1.7-1.156 2.79 0 0.263 0.026 0.521 0.075 0.77 0.051 0.257 0.126 0.504 0.224 0.74 0.2 0.482 0.493 0.916 0.856 1.28s0.797 0.656 1.28 0.856c0.236 0.098 0.484 0.174 0.74 0.224 0.249 0.049 0.506 0.075 0.77 0.075 1.090 0 2.076-0.442 2.79-1.156-0.292-0.292-0.566-0.566-0.824-0.824l-0.035-0.035M17.354 16.185c-0.494 0.494-0.8 1.177-0.8 1.931M17.354 16.185l0.155 0.155c0.062 0.062 0.123 0.123 0.183 0.183l0.348 0.348c0.056 0.056 0.11 0.11 0.164 0.164l0.724 0.724c0.129 0.129 0.248 0.248 0.357 0.357M16.554 18.116c0 1.509 1.223 2.732 2.732 2.732M16.554 18.116c0 0.182 0.018 0.361 0.052 0.533l2.68-0.533M19.286 20.848c0.754 0 1.437-0.306 1.931-0.8M19.286 20.848c-0.37 0-0.724-0.074-1.046-0.207l1.046-2.524M21.217 20.048l-0.155-0.155c-0.062-0.062-0.123-0.123-0.183-0.183l-0.348-0.348c-0.056-0.056-0.11-0.11-0.164-0.164l-0.724-0.724c-0.129-0.129-0.248-0.248-0.357-0.357"></path>
</symbol>
<symbol id="ph-citrus-112px" viewBox="0 0 32 32">
<path fill="#fff" style="fill: var(--color1, #fff)" opacity="0.5" d="M2.286 0.143h27.429c1.183 0 2.143 0.959 2.143 2.143v27.429c0 1.183-0.959 2.143-2.143 2.143h-27.429c-1.183 0-2.143-0.959-2.143-2.143v-27.429c0-1.183 0.959-2.143 2.143-2.143z"></path>
<path fill="none" stroke="#8baa36" style="stroke: var(--color2, #8baa36)" stroke-linejoin="miter" stroke-linecap="round" stroke-miterlimit="4" stroke-width="0.5714" d="M14.667 12c2.577 0 4.667 2.089 4.667 4.667 0 0.25-0.020 0.495-0.057 0.734l-2.132-2.131c-0.707 0.707-1.144 1.683-1.144 2.761 0 1.025 0.395 1.957 1.041 2.654-0.695 0.412-1.507 0.648-2.374 0.648-2.577 0-4.667-2.089-4.667-4.667s2.089-4.667 4.667-4.667zM14.667 12l-1.726-0.345c-0.935-0.187-1.608-1.008-1.608-1.961v-0.36l1.726 0.345c0.935 0.187 1.608 1.008 1.608 1.961v1.027M14.667 12v0.667M14.667 12.667c0-0.817 0.462-1.564 1.193-1.93l0.141-0.070M17.994 16.183l-0.034-0.034c-0.255-0.255-0.527-0.527-0.815-0.815-0.707 0.707-1.144 1.683-1.144 2.761 0 0.261 0.026 0.516 0.074 0.762 0.050 0.254 0.125 0.499 0.222 0.733 0.198 0.477 0.488 0.907 0.848 1.267s0.789 0.65 1.267 0.848c0.234 0.097 0.479 0.172 0.733 0.222 0.246 0.049 0.501 0.074 0.762 0.074 1.078 0 2.055-0.437 2.761-1.144-0.289-0.289-0.561-0.561-0.815-0.815l-0.034-0.034M17.994 16.183c-0.489 0.489-0.792 1.165-0.792 1.912M17.994 16.183l0.154 0.154c0.062 0.062 0.122 0.122 0.182 0.182l0.344 0.344c0.055 0.055 0.109 0.109 0.162 0.162l0.717 0.717c0.127 0.127 0.245 0.245 0.354 0.354M17.202 18.095c0 1.493 1.21 2.704 2.704 2.704M17.202 18.095c0 0.181 0.018 0.357 0.051 0.528l2.652-0.528M19.905 20.798c0.747 0 1.422-0.303 1.912-0.792M19.905 20.798c-0.367 0-0.716-0.073-1.035-0.205l1.035-2.498M21.817 20.007l-0.154-0.154c-0.062-0.062-0.122-0.122-0.182-0.182l-0.344-0.344c-0.055-0.055-0.109-0.109-0.162-0.162l-0.717-0.717c-0.127-0.127-0.245-0.245-0.354-0.354"></path>
</symbol>
<symbol id="ph-citrus-128px" viewBox="0 0 32 32">
<path fill="#fff" style="fill: var(--color1, #fff)" opacity="0.5" d="M2 0.125h28c1.036 0 1.875 0.839 1.875 1.875v28c0 1.036-0.839 1.875-1.875 1.875h-28c-1.036 0-1.875-0.839-1.875-1.875v-28c0-1.036 0.839-1.875 1.875-1.875z"></path>
<path fill="none" stroke="#8baa36" style="stroke: var(--color2, #8baa36)" stroke-linejoin="miter" stroke-linecap="round" stroke-miterlimit="4" stroke-width="0.5" d="M14.75 12.25c2.416 0 4.375 1.959 4.375 4.375 0 0.234-0.018 0.464-0.054 0.688l-1.999-1.998c-0.663 0.663-1.072 1.578-1.072 2.589 0 0.961 0.37 1.835 0.976 2.488-0.652 0.386-1.413 0.608-2.226 0.608-2.416 0-4.375-1.959-4.375-4.375s1.959-4.375 4.375-4.375zM14.75 12.25l-1.618-0.324c-0.876-0.175-1.507-0.945-1.507-1.839v-0.338l1.618 0.324c0.876 0.175 1.507 0.945 1.507 1.839v0.963M14.75 12.25v0.625M14.75 12.875c0-0.766 0.433-1.466 1.118-1.809l0.132-0.066M17.869 16.172l-0.032-0.032c-0.239-0.239-0.494-0.494-0.764-0.764-0.663 0.663-1.072 1.578-1.072 2.589 0 0.244 0.024 0.483 0.070 0.714 0.047 0.238 0.117 0.468 0.208 0.687 0.186 0.448 0.457 0.85 0.795 1.187s0.74 0.609 1.187 0.795c0.219 0.091 0.449 0.161 0.687 0.208 0.231 0.046 0.47 0.070 0.714 0.070 1.011 0 1.926-0.41 2.589-1.072-0.271-0.271-0.526-0.526-0.764-0.764l-0.032-0.032M17.869 16.172c-0.459 0.459-0.742 1.092-0.742 1.792M17.869 16.172l0.144 0.144c0.058 0.058 0.114 0.114 0.17 0.17l0.323 0.323c0.052 0.052 0.103 0.102 0.152 0.152l0.672 0.672c0.119 0.119 0.23 0.23 0.331 0.331M17.127 17.964c0 1.4 1.135 2.535 2.535 2.535M17.127 17.964c0 0.169 0.017 0.335 0.048 0.495l2.486-0.495M19.661 20.498c0.7 0 1.334-0.284 1.792-0.742M19.661 20.498c-0.344 0-0.671-0.068-0.97-0.192l0.97-2.342M21.453 19.756l-0.144-0.144c-0.058-0.058-0.114-0.114-0.17-0.17l-0.323-0.323c-0.052-0.052-0.102-0.103-0.152-0.152l-0.672-0.672c-0.119-0.119-0.23-0.23-0.331-0.331"></path>
</symbol>
<symbol id="ph-fish-57px" viewBox="0 0 32 32">
<path fill="none" stroke="#8baa36" style="stroke: var(--color2, #8baa36)" stroke-linejoin="miter" stroke-linecap="round" stroke-miterlimit="4" stroke-width="1.2606" d="M11.147 12.504c-0.786 0.49-1.516 1.060-2.178 1.7-0.839-1.81-2.617-3.083-4.693-3.218l-0.276-0.011v1.093l0.009 0.342c0.101 1.814 0.995 3.427 2.353 4.48-1.461 1.287-2.363 3.169-2.363 5.228v0.344l0.203 0.019c2.196 0.159 4.157-1.156 4.914-3.106 4.716 4.421 12.086 4.816 17.275 0.655 1.015-0.814 1.904-1.773 2.637-2.845l0.305-0.466c-3.858-6.186-12-8.072-18.186-4.214zM18.716 22.92l0.175-0.009c-0.972 0.968-2.163 1.703-3.52 2.101-1.054 0.309-2.114 0.388-3.137 0.264 0.499-1.014 0.887-2.098 1.149-3.228 1.7 0.655 3.518 0.95 5.332 0.871zM20.018 10.451l0.138 0.208c-2.613-0.406-5.358-0.034-7.861 1.205-0.765-1.617-1.791-3.026-3-4.177 0.521-0.29 1.080-0.527 1.669-0.7 3.48-1.022 7.034 0.472 9.054 3.465z"></path>
<path fill="none" stroke="#8baa36" style="stroke: var(--color2, #8baa36)" stroke-linejoin="round" stroke-linecap="round" stroke-miterlimit="4" stroke-width="1.2606" d="M23.333 15.467v0z"></path>
</symbol>
<symbol id="ph-fish-60px" viewBox="0 0 32 32">
<path fill="#ebf3d4" style="fill: var(--color3, #ebf3d4); stroke: var(--color2, #8baa36)" stroke="#8baa36" stroke-linejoin="miter" stroke-linecap="butt" stroke-miterlimit="4" stroke-width="0.5333" d="M4.267 0.267h23.467c2.209 0 4 1.791 4 4v23.467c0 2.209-1.791 4-4 4h-23.467c-2.209 0-4-1.791-4-4v-23.467c0-2.209 1.791-4 4-4z"></path>
<path fill="none" stroke="#8baa36" style="stroke: var(--color2, #8baa36)" stroke-linejoin="miter" stroke-linecap="round" stroke-miterlimit="4" stroke-width="0.8" d="M13.412 14.135c-0.419 0.261-0.809 0.566-1.162 0.906-0.448-0.966-1.396-1.644-2.503-1.716l-0.147-0.006v0.583l0.005 0.183c0.054 0.967 0.531 1.827 1.255 2.389-0.779 0.687-1.26 1.69-1.26 2.788v0.183l0.108 0.010c1.171 0.085 2.217-0.617 2.621-1.656 2.515 2.358 6.446 2.569 9.214 0.349 0.541-0.434 1.015-0.946 1.406-1.518l0.163-0.249c-2.058-3.299-6.4-4.305-9.699-2.248zM17.449 19.691l0.094-0.005c-0.518 0.516-1.154 0.908-1.877 1.121-0.562 0.165-1.128 0.207-1.673 0.141 0.266-0.541 0.473-1.119 0.613-1.722 0.906 0.349 1.876 0.507 2.844 0.465zM18.143 13.041l0.074 0.111c-1.393-0.217-2.857-0.018-4.193 0.643-0.408-0.862-0.955-1.614-1.6-2.228 0.278-0.155 0.576-0.281 0.89-0.373 1.856-0.545 3.751 0.252 4.829 1.848z"></path>
<path fill="none" stroke="#8baa36" style="stroke: var(--color2, #8baa36)" stroke-linejoin="round" stroke-linecap="round" stroke-miterlimit="4" stroke-width="0.8" d="M19.911 15.716v0z"></path>
</symbol>
<symbol id="ph-fish-93px" viewBox="0 0 31 32">
<path fill="#ebf3d4" style="fill: var(--color3, #ebf3d4); stroke: var(--color2, #8baa36)" stroke="#8baa36" stroke-linejoin="miter" stroke-linecap="butt" stroke-miterlimit="4" stroke-width="0.3299" d="M2.639 0.165h25.402c1.366 0 2.474 1.108 2.474 2.474v26.722c0 1.366-1.108 2.474-2.474 2.474h-25.402c-1.366 0-2.474-1.108-2.474-2.474v-26.722c0-1.366 1.108-2.474 2.474-2.474z"></path>
<path fill="none" stroke="#8baa36" style="stroke: var(--color2, #8baa36)" stroke-linejoin="miter" stroke-linecap="round" stroke-miterlimit="4" stroke-width="0.6598" d="M12.889 14.234c-0.397 0.248-0.766 0.536-1.1 0.858-0.424-0.915-1.322-1.557-2.371-1.625l-0.14-0.006v0.552l0.005 0.173c0.051 0.916 0.503 1.731 1.189 2.263-0.738 0.65-1.194 1.601-1.194 2.641v0.174l0.102 0.010c1.109 0.080 2.1-0.584 2.482-1.569 2.382 2.233 6.105 2.433 8.727 0.331 0.513-0.411 0.962-0.896 1.332-1.437l0.154-0.236c-1.949-3.125-6.062-4.078-9.187-2.129zM16.712 19.496l0.089-0.004c-0.491 0.489-1.093 0.86-1.778 1.061-0.532 0.156-1.068 0.196-1.585 0.134 0.252-0.512 0.448-1.060 0.581-1.631 0.859 0.331 1.777 0.48 2.693 0.44zM17.37 13.197l0.070 0.105c-1.32-0.205-2.707-0.017-3.971 0.609-0.386-0.817-0.905-1.528-1.515-2.11 0.263-0.146 0.546-0.266 0.843-0.354 1.758-0.516 3.553 0.239 4.574 1.75z"></path>
<path fill="none" stroke="#8baa36" style="stroke: var(--color2, #8baa36)" stroke-linejoin="round" stroke-linecap="round" stroke-miterlimit="4" stroke-width="0.6598" d="M19.045 15.731v0z"></path>
</symbol>
<symbol id="ph-fish-112px" viewBox="0 0 32 32">
<path fill="#fff" style="fill: var(--color1, #fff)" opacity="0.5" d="M2.286 0.143h27.429c1.183 0 2.143 0.959 2.143 2.143v27.429c0 1.183-0.959 2.143-2.143 2.143h-27.429c-1.183 0-2.143-0.959-2.143-2.143v-27.429c0-1.183 0.959-2.143 2.143-2.143z"></path>
<path fill="none" stroke="#8baa36" style="stroke: var(--color2, #8baa36)" stroke-linejoin="miter" stroke-linecap="round" stroke-miterlimit="4" stroke-width="0.5714" d="M13.574 14.252c-0.393 0.245-0.758 0.53-1.089 0.85-0.42-0.905-1.308-1.542-2.346-1.609l-0.138-0.006v0.546l0.005 0.171c0.050 0.907 0.498 1.713 1.177 2.24-0.73 0.644-1.181 1.584-1.181 2.614v0.172l0.101 0.009c1.098 0.080 2.079-0.578 2.457-1.553 2.358 2.21 6.043 2.408 8.638 0.328 0.508-0.407 0.952-0.887 1.319-1.423l0.152-0.233c-1.929-3.093-6-4.036-9.093-2.107zM17.358 19.46l0.088-0.004c-0.486 0.484-1.082 0.852-1.76 1.051-0.527 0.155-1.057 0.194-1.568 0.132 0.25-0.507 0.443-1.049 0.575-1.614 0.85 0.328 1.759 0.475 2.666 0.436zM18.009 13.226l0.069 0.104c-1.306-0.203-2.679-0.017-3.931 0.602-0.383-0.808-0.896-1.513-1.5-2.089 0.261-0.145 0.54-0.263 0.835-0.35 1.74-0.511 3.517 0.236 4.527 1.732z"></path>
<path fill="none" stroke="#8baa36" style="stroke: var(--color2, #8baa36)" stroke-linejoin="round" stroke-linecap="round" stroke-miterlimit="4" stroke-width="0.5714" d="M19.667 15.733v0z"></path>
</symbol>
<symbol id="ph-fish-128px" viewBox="0 0 32 32">
<path fill="#fff" style="fill: var(--color1, #fff)" opacity="0.5" d="M2 0.125h28c1.036 0 1.875 0.839 1.875 1.875v28c0 1.036-0.839 1.875-1.875 1.875h-28c-1.036 0-1.875-0.839-1.875-1.875v-28c0-1.036 0.839-1.875 1.875-1.875z"></path>
<path fill="none" stroke="#8baa36" style="stroke: var(--color2, #8baa36)" stroke-linejoin="miter" stroke-linecap="round" stroke-miterlimit="4" stroke-width="0.5" d="M13.725 14.361c-0.368 0.23-0.711 0.497-1.021 0.797-0.393-0.849-1.227-1.445-2.2-1.508l-0.13-0.005v0.512l0.004 0.16c0.047 0.85 0.466 1.606 1.103 2.1-0.685 0.603-1.108 1.485-1.108 2.451v0.161l0.095 0.009c1.029 0.075 1.949-0.542 2.303-1.456 2.211 2.072 5.665 2.258 8.098 0.307 0.476-0.382 0.892-0.831 1.236-1.334l0.143-0.219c-1.809-2.9-5.625-3.784-8.525-1.975zM17.273 19.244l0.082-0.004c-0.456 0.454-1.014 0.798-1.65 0.985-0.494 0.145-0.991 0.182-1.47 0.124 0.234-0.475 0.416-0.984 0.539-1.513 0.797 0.307 1.649 0.445 2.499 0.408zM17.883 13.399l0.065 0.097c-1.225-0.19-2.511-0.016-3.685 0.565-0.359-0.758-0.84-1.418-1.406-1.958 0.244-0.136 0.506-0.247 0.783-0.328 1.631-0.479 3.297 0.221 4.244 1.624z"></path>
<path fill="none" stroke="#8baa36" style="stroke: var(--color2, #8baa36)" stroke-linejoin="round" stroke-linecap="round" stroke-miterlimit="4" stroke-width="0.5" d="M19.438 15.75v0z"></path>
</symbol>
<symbol id="ph-img-97px" viewBox="0 0 37 32">
<path fill="#d9d9d9" style="fill: var(--color4, #d9d9d9)" d="M33.506 0h-30.494c-1.663 0-3.012 1.348-3.012 3.012v25.976c0 1.663 1.348 3.012 3.012 3.012h30.494c1.663 0 3.012-1.348 3.012-3.012v-25.976c0-1.663-1.348-3.012-3.012-3.012z"></path>
<path fill="none" stroke="#c4c4c4" style="stroke: var(--color5, #c4c4c4)" stroke-linejoin="round" stroke-linecap="round" stroke-miterlimit="4" stroke-width="0.6776" d="M22.66 14.467v-1.724c0-0.304-0.12-0.595-0.335-0.81s-0.505-0.336-0.809-0.337l-1.724-0.005M22.66 17.909v1.721c0 0.304-0.121 0.596-0.336 0.811s-0.507 0.336-0.811 0.336h-1.721M16.35 11.59l-1.724 0.006c-0.304 0.001-0.595 0.122-0.809 0.337s-0.335 0.506-0.335 0.81v1.724M16.35 20.778h-1.721c-0.304 0-0.596-0.121-0.811-0.336s-0.336-0.507-0.336-0.811v-1.721"></path>
<path fill="#c4c4c4" style="fill: var(--color5, #c4c4c4)" d="M18.034 17.224c0.235 0 0.435-0.082 0.6-0.247s0.247-0.365 0.247-0.6-0.082-0.435-0.247-0.6c-0.165-0.165-0.365-0.247-0.6-0.247s-0.435 0.082-0.6 0.247c-0.165 0.165-0.247 0.365-0.247 0.6s0.082 0.435 0.247 0.6c0.165 0.165 0.365 0.247 0.6 0.247zM16.528 17.882c-0.104 0-0.192-0.037-0.266-0.11s-0.111-0.162-0.111-0.266v-2.259c0-0.104 0.037-0.192 0.111-0.266s0.162-0.111 0.266-0.111h0.593l0.348-0.376h1.129l0.348 0.376h0.593c0.104 0 0.192 0.037 0.266 0.111s0.11 0.162 0.11 0.266v2.259c0 0.104-0.037 0.192-0.11 0.266s-0.162 0.11-0.266 0.11h-3.012z"></path>
</symbol>
<symbol id="ph-img-300px" viewBox="0 0 30 32">
<path fill="#d9d9d9" style="fill: var(--color4, #d9d9d9)" d="M0.793 0h28.136c0.438 0 0.793 0.355 0.793 0.793v30.415c0 0.438-0.355 0.793-0.793 0.793h-28.136c-0.438 0-0.793-0.355-0.793-0.793v-30.415c0-0.438 0.355-0.793 0.793-0.793z"></path>
<path fill="#c4c4c4" style="fill: var(--color5, #c4c4c4)" d="M14.836 16.765c0.163 0 0.301-0.057 0.415-0.171s0.171-0.252 0.171-0.415c0-0.162-0.057-0.301-0.171-0.415s-0.252-0.171-0.415-0.171-0.301 0.057-0.415 0.171c-0.114 0.114-0.171 0.252-0.171 0.415s0.057 0.301 0.171 0.415c0.114 0.114 0.252 0.171 0.415 0.171zM13.796 17.22c-0.072 0-0.133-0.025-0.184-0.076s-0.076-0.112-0.076-0.184v-1.56c0-0.072 0.025-0.133 0.076-0.184s0.112-0.076 0.184-0.076h0.41l0.241-0.26h0.78l0.241 0.26h0.41c0.072 0 0.133 0.026 0.184 0.076s0.076 0.112 0.076 0.184v1.56c0 0.071-0.025 0.133-0.076 0.184s-0.112 0.076-0.184 0.076h-2.081z"></path>
</symbol>
<symbol id="ph-meat-57px" viewBox="0 0 32 32">
<path fill="#fff" style="fill: var(--color1, #fff); stroke: var(--color2, #8baa36)" opacity="0.5" stroke="#8baa36" stroke-linejoin="miter" stroke-linecap="butt" stroke-miterlimit="4" stroke-width="0.5614" d="M4.491 0.281h23.018c2.325 0 4.211 1.885 4.211 4.211v23.018c0 2.325-1.885 4.211-4.211 4.211h-23.018c-2.325 0-4.211-1.885-4.211-4.211v-23.018c0-2.325 1.885-4.211 4.211-4.211z"></path>
<path fill="none" stroke="#8baa36" style="stroke: var(--color2, #8baa36)" stroke-linejoin="miter" stroke-linecap="round" stroke-miterlimit="4" stroke-width="0.7298" d="M12.319 23.275c-0.452 0.452-1.185 0.452-1.637 0-0.356-0.356-0.432-0.887-0.227-1.317l-0.093-0.093c-0.43 0.205-0.961 0.13-1.318-0.227-0.452-0.452-0.452-1.185 0-1.637s1.185-0.452 1.637 0c0.096 0.096 0.171 0.204 0.227 0.32l1.409-1.41c0.148 0.207 0.315 0.405 0.501 0.591s0.384 0.353 0.592 0.501l-1.41 1.409c0.115 0.055 0.224 0.131 0.319 0.226 0.452 0.452 0.452 1.185 0 1.637zM16.309 9.461l0.010-0.011c0.904-0.904 3.104-0.171 4.913 1.637s2.542 4.008 1.637 4.913l-3.501 3.501c-1.809 1.809-4.741 1.809-6.55 0s-1.809-4.741 0-6.55l3.491-3.49zM16.32 9.45c-0.904 0.904-0.171 3.104 1.638 4.913s4.008 2.542 4.912 1.637 0.171-3.104-1.637-4.913c-1.809-1.809-4.008-2.542-4.913-1.637zM18.503 11.633c-0.301 0.301-0.057 1.035 0.546 1.637s1.336 0.847 1.637 0.546 0.057-1.035-0.546-1.637c-0.603-0.603-1.336-0.847-1.637-0.546z"></path>
</symbol>
<symbol id="ph-meat-60px" viewBox="0 0 32 32">
<path fill="#ebf3d4" style="fill: var(--color3, #ebf3d4); stroke: var(--color2, #8baa36)" stroke="#8baa36" stroke-linejoin="miter" stroke-linecap="butt" stroke-miterlimit="4" stroke-width="0.5333" d="M4.267 0.267h23.467c2.209 0 4 1.791 4 4v23.467c0 2.209-1.791 4-4 4h-23.467c-2.209 0-4-1.791-4-4v-23.467c0-2.209 1.791-4 4-4z"></path>
<path fill="none" stroke="#8baa36" style="stroke: var(--color2, #8baa36)" stroke-linejoin="miter" stroke-linecap="round" stroke-miterlimit="4" stroke-width="0.8" d="M12.61 22.702c-0.417 0.417-1.092 0.417-1.508 0-0.328-0.328-0.398-0.817-0.209-1.214l-0.086-0.086c-0.396 0.189-0.885 0.12-1.214-0.209-0.417-0.417-0.417-1.092 0-1.508s1.092-0.417 1.509 0c0.088 0.088 0.158 0.188 0.209 0.295l1.298-1.299c0.136 0.191 0.29 0.373 0.461 0.544s0.354 0.325 0.545 0.462l-1.299 1.298c0.106 0.051 0.206 0.12 0.294 0.208 0.417 0.417 0.417 1.092 0 1.508zM16.285 9.977l0.010-0.011c0.833-0.833 2.859-0.158 4.526 1.509s2.342 3.692 1.508 4.525l-3.225 3.225c-1.666 1.666-4.368 1.666-6.034 0s-1.666-4.368 0-6.034l3.216-3.215zM16.294 9.966c-0.833 0.833-0.158 2.859 1.508 4.526s3.692 2.342 4.526 1.509c0.833-0.833 0.158-2.859-1.508-4.526s-3.692-2.342-4.526-1.509zM18.306 11.977c-0.278 0.278-0.053 0.953 0.503 1.508s1.231 0.781 1.509 0.503c0.278-0.278 0.053-0.953-0.503-1.508s-1.231-0.781-1.509-0.503z"></path>
</symbol>
<symbol id="ph-meat-93px" viewBox="0 0 31 32">
<path fill="#ebf3d4" style="fill: var(--color3, #ebf3d4); stroke: var(--color2, #8baa36)" stroke="#8baa36" stroke-linejoin="miter" stroke-linecap="butt" stroke-miterlimit="4" stroke-width="0.3299" d="M2.639 0.165h25.402c1.366 0 2.474 1.108 2.474 2.474v26.722c0 1.366-1.108 2.474-2.474 2.474h-25.402c-1.366 0-2.474-1.108-2.474-2.474v-26.722c0-1.366 1.108-2.474 2.474-2.474z"></path>
<path fill="none" stroke="#8baa36" style="stroke: var(--color2, #8baa36)" stroke-linejoin="miter" stroke-linecap="round" stroke-miterlimit="4" stroke-width="0.6598" d="M12.129 22.348c-0.395 0.395-1.034 0.395-1.429 0-0.311-0.311-0.377-0.774-0.198-1.15l-0.082-0.082c-0.375 0.179-0.839 0.113-1.15-0.198-0.395-0.395-0.395-1.034 0-1.429s1.034-0.395 1.429 0c0.084 0.084 0.15 0.178 0.198 0.279l1.23-1.23c0.129 0.181 0.274 0.353 0.437 0.516s0.335 0.308 0.516 0.437l-1.23 1.23c0.101 0.048 0.195 0.114 0.279 0.197 0.395 0.395 0.395 1.034 0 1.429zM15.61 10.295l0.009-0.010c0.789-0.789 2.708-0.149 4.286 1.429s2.218 3.497 1.429 4.286l-3.055 3.055c-1.578 1.578-4.137 1.578-5.715 0s-1.578-4.137 0-5.715l3.046-3.045zM15.619 10.285c-0.789 0.789-0.149 2.708 1.429 4.286s3.497 2.218 4.286 1.429c0.789-0.789 0.149-2.708-1.429-4.286s-3.497-2.218-4.286-1.429zM17.524 12.19c-0.263 0.263-0.050 0.903 0.476 1.429s1.166 0.739 1.429 0.476c0.263-0.263 0.050-0.903-0.476-1.429s-1.166-0.739-1.429-0.476z"></path>
</symbol>
<symbol id="ph-meat-112px" viewBox="0 0 32 32">
<path fill="#fff" style="fill: var(--color1, #fff)" opacity="0.5" d="M2.286 0.143h27.429c1.183 0 2.143 0.959 2.143 2.143v27.429c0 1.183-0.959 2.143-2.143 2.143h-27.429c-1.183 0-2.143-0.959-2.143-2.143v-27.429c0-1.183 0.959-2.143 2.143-2.143z"></path>
<path fill="none" stroke="#8baa36" style="stroke: var(--color2, #8baa36)" stroke-linejoin="miter" stroke-linecap="round" stroke-miterlimit="4" stroke-width="0.5714" d="M12.821 22.283c-0.39 0.391-1.024 0.391-1.414 0-0.308-0.308-0.373-0.766-0.196-1.138l-0.081-0.081c-0.372 0.177-0.83 0.112-1.138-0.196-0.39-0.391-0.39-1.024 0-1.414s1.024-0.39 1.414 0c0.083 0.083 0.148 0.176 0.196 0.276l1.217-1.218c0.128 0.179 0.272 0.35 0.432 0.51s0.332 0.305 0.511 0.433l-1.218 1.217c0.1 0.048 0.193 0.113 0.276 0.195 0.391 0.39 0.391 1.024 0 1.414zM16.267 10.353l0.009-0.010c0.781-0.781 2.681-0.148 4.243 1.414s2.195 3.462 1.414 4.243l-3.024 3.024c-1.562 1.562-4.095 1.562-5.657 0s-1.562-4.095 0-5.657l3.015-3.014zM16.276 10.343c-0.781 0.781-0.148 2.681 1.414 4.243s3.462 2.195 4.243 1.414c0.781-0.781 0.148-2.681-1.414-4.243s-3.462-2.195-4.243-1.414zM18.162 12.229c-0.26 0.26-0.049 0.893 0.471 1.414s1.154 0.732 1.414 0.471c0.26-0.26 0.049-0.893-0.471-1.414s-1.154-0.732-1.414-0.471z"></path>
</symbol>
<symbol id="ph-meat-128px" viewBox="0 0 32 32">
<path fill="#fff" style="fill: var(--color1, #fff)" opacity="0.5" d="M2 0.125h28c1.036 0 1.875 0.839 1.875 1.875v28c0 1.036-0.839 1.875-1.875 1.875h-28c-1.036 0-1.875-0.839-1.875-1.875v-28c0-1.036 0.839-1.875 1.875-1.875z"></path>
<path fill="none" stroke="#8baa36" style="stroke: var(--color2, #8baa36)" stroke-linejoin="miter" stroke-linecap="round" stroke-miterlimit="4" stroke-width="0.5" d="M13.020 21.89c-0.366 0.366-0.96 0.366-1.326 0-0.289-0.289-0.35-0.718-0.183-1.067l-0.076-0.076c-0.348 0.166-0.778 0.105-1.067-0.183-0.366-0.366-0.366-0.96 0-1.326s0.96-0.366 1.326 0c0.078 0.078 0.139 0.165 0.183 0.259l1.141-1.142c0.12 0.168 0.255 0.328 0.405 0.479s0.311 0.286 0.479 0.406l-1.142 1.141c0.093 0.045 0.181 0.106 0.259 0.183 0.366 0.366 0.366 0.96 0 1.326zM16.25 10.706l0.008-0.009c0.732-0.732 2.513-0.139 3.977 1.326s2.058 3.245 1.326 3.977l-2.835 2.835c-1.464 1.464-3.839 1.464-5.303 0s-1.464-3.839 0-5.303l2.826-2.825zM16.259 10.697c-0.732 0.732-0.139 2.513 1.326 3.977s3.245 2.058 3.977 1.326c0.732-0.732 0.139-2.513-1.326-3.977s-3.245-2.058-3.977-1.326zM18.027 12.464c-0.244 0.244-0.046 0.838 0.442 1.326s1.082 0.686 1.326 0.442c0.244-0.244 0.046-0.838-0.442-1.326s-1.082-0.686-1.326-0.442z"></path>
</symbol>
<symbol id="ph-video-664px" viewBox="0 0 64 32">
<path fill="#d9d9d9" style="fill: var(--color4, #d9d9d9)" d="M0.771 0h62.458c0.426 0 0.771 0.345 0.771 0.771v30.458c0 0.426-0.345 0.771-0.771 0.771h-62.458c-0.426 0-0.771-0.345-0.771-0.771v-30.458c0-0.426 0.345-0.771 0.771-0.771z"></path>
<path fill="#c4c4c4" style="fill: var(--color5, #c4c4c4)" d="M31.976 16.696c0.158 0 0.293-0.055 0.403-0.166s0.166-0.245 0.166-0.403c0-0.158-0.055-0.293-0.166-0.403s-0.245-0.166-0.403-0.166-0.293 0.055-0.403 0.166c-0.111 0.111-0.166 0.245-0.166 0.403s0.055 0.293 0.166 0.403c0.111 0.111 0.245 0.166 0.403 0.166zM30.964 17.139c-0.070 0-0.129-0.025-0.179-0.074s-0.074-0.109-0.074-0.179v-1.518c0-0.070 0.025-0.129 0.074-0.179s0.109-0.074 0.179-0.074h0.398l0.234-0.253h0.759l0.234 0.253h0.398c0.070 0 0.129 0.025 0.179 0.074s0.074 0.109 0.074 0.179v1.518c0 0.070-0.025 0.129-0.074 0.179s-0.109 0.074-0.179 0.074h-2.024z"></path>
</symbol>
</defs>
</svg>
