<svg width="17" height="17" viewBox="0 0 17 17" fill="none" xmlns="http://www.w3.org/2000/svg">
<path d="M12.0415 1.41654C12.9801 1.41934 13.8793 1.79341 14.543 2.45704C15.2066 3.12067 15.5807 4.01995 15.5835 4.95846V12.0415C15.5807 12.9801 15.2066 13.8793 14.543 14.543C13.8793 15.2066 12.9801 15.5807 12.0415 15.5835H4.95846C4.01995 15.5807 3.12067 15.2066 2.45704 14.543C1.79341 13.8793 1.41934 12.9801 1.41654 12.0415V4.95846C1.41934 4.01995 1.79341 3.12067 2.45704 2.45704C3.12067 1.79341 4.01995 1.41934 4.95846 1.41654H12.0415ZM12.0415 0H4.95846C2.23125 0 0 2.23125 0 4.95846V12.0415C0 14.7688 2.23125 17 4.95846 17H12.0415C14.7688 17 17 14.7688 17 12.0415V4.95846C17 2.23125 14.7688 0 12.0415 0Z" fill="#8BAA36"/>
<path d="M13.104 4.9602C12.8939 4.9602 12.6885 4.89789 12.5137 4.78114C12.339 4.66439 12.2028 4.49845 12.1224 4.30431C12.042 4.11016 12.021 3.89653 12.062 3.69042C12.103 3.48432 12.2041 3.295 12.3527 3.1464C12.5013 2.99781 12.6907 2.89662 12.8968 2.85562C13.1029 2.81462 13.3165 2.83567 13.5106 2.91608C13.7048 2.9965 13.8707 3.13268 13.9875 3.30741C14.1042 3.48214 14.1665 3.68756 14.1665 3.89771C14.1668 4.03732 14.1396 4.17562 14.0863 4.30466C14.033 4.4337 13.9547 4.55095 13.856 4.64968C13.7573 4.7484 13.64 4.82665 13.511 4.87994C13.382 4.93323 13.2437 4.96051 13.104 4.9602ZM8.5 5.66829C9.06041 5.66829 9.60823 5.83446 10.0742 6.14581C10.5401 6.45715 10.9033 6.89968 11.1178 7.41743C11.3322 7.93517 11.3883 8.50489 11.279 9.05452C11.1697 9.60416 10.8998 10.109 10.5036 10.5053C10.1073 10.9016 9.60242 11.1714 9.05278 11.2808C8.50314 11.3901 7.93343 11.334 7.41568 11.1195C6.89794 10.9051 6.45541 10.5419 6.14407 10.0759C5.83272 9.60997 5.66654 9.06215 5.66654 8.50174C5.66735 7.75051 5.96613 7.03028 6.49733 6.49907C7.02853 5.96787 7.74877 5.66909 8.5 5.66829ZM8.5 4.25175C7.65943 4.25175 6.83774 4.501 6.13883 4.968C5.43992 5.43499 4.89519 6.09875 4.57351 6.87534C4.25184 7.65193 4.16768 8.50646 4.33166 9.33088C4.49565 10.1553 4.90043 10.9126 5.4948 11.5069C6.08917 12.1013 6.84645 12.5061 7.67087 12.6701C8.49529 12.8341 9.34982 12.7499 10.1264 12.4282C10.903 12.1066 11.5668 11.5618 12.0337 10.8629C12.5007 10.164 12.75 9.34231 12.75 8.50174C12.75 7.37457 12.3022 6.29357 11.5052 5.49654C10.7082 4.69951 9.62717 4.25175 8.5 4.25175Z" fill="#8BAA36"/>
</svg>
