<svg width="20" height="17" viewBox="0 0 20 17" fill="none" xmlns="http://www.w3.org/2000/svg">
<path d="M18 2.15886C17.3248 2.44409 16.6104 2.632 15.8794 2.71667C16.6476 2.27931 17.2254 1.58448 17.5043 0.762505C16.7779 1.17543 15.9846 1.46515 15.1583 1.61927C14.8103 1.26473 14.3918 0.982678 13.9282 0.790266C13.4647 0.597855 12.9657 0.4991 12.4616 0.500006C10.4209 0.500006 8.76938 2.08229 8.76938 4.03281C8.76793 4.30412 8.79991 4.57462 8.86462 4.83853C7.40126 4.77184 5.96832 4.4089 4.65749 3.77295C3.34666 3.137 2.18681 2.24204 1.25213 1.14532C0.924216 1.68275 0.7508 2.29595 0.75 2.92083C0.75 4.14583 1.40738 5.22864 2.4 5.86301C1.8119 5.84944 1.23585 5.69811 0.72075 5.42187V5.46562C0.72075 7.17915 1.99575 8.60467 3.68325 8.92915C3.36592 9.01139 3.03891 9.05306 2.7105 9.0531C2.47747 9.0535 2.24496 9.03152 2.01638 8.98748C2.4855 10.3911 3.85088 11.412 5.46825 11.4411C4.15402 12.4258 2.54048 12.9581 0.88125 12.9541C0.586732 12.9537 0.292487 12.9367 0 12.9031C1.68794 13.951 3.65004 14.5053 5.65275 14.5C12.4538 14.5 16.1693 9.11508 16.1693 4.44479C16.1693 4.29166 16.1651 4.13854 16.1576 3.98906C16.8788 3.49033 17.5027 2.87056 18 2.15886Z" fill="#8BAA36"/>
</svg>
