<svg width="22" height="19" viewBox="0 0 22 19" fill="none" xmlns="http://www.w3.org/2000/svg">
<path d="M3 1.49976H19C19.5299 1.50134 20.0377 1.71256 20.4125 2.08729C20.7872 2.46202 20.9984 2.96981 21 3.49976V15.4998C20.9984 16.0297 20.7872 16.5375 20.4125 16.9122C20.0377 17.287 19.5299 17.4982 19 17.4998H3C2.47005 17.4982 1.96227 17.287 1.58753 16.9122C1.2128 16.5375 1.00158 16.0297 1 15.4998V3.49976C1.00158 2.96981 1.2128 2.46202 1.58753 2.08729C1.96227 1.71256 2.47005 1.50134 3 1.49976V1.49976Z" stroke="#FAFAFA" stroke-width="1.2" stroke-linecap="round" stroke-linejoin="round"/>
<path d="M21 3.49976L11 10.4998L1 3.49976" stroke="#FAFAFA" stroke-width="1.2" stroke-linecap="round" stroke-linejoin="round"/>
</svg>
