<svg width="75" height="20" viewBox="0 0 75 20" fill="none" xmlns="http://www.w3.org/2000/svg">
<g clip-path="url(#clip0_264_737)">
<path d="M9.99996 18.3334C14.6023 18.3334 18.3333 14.6024 18.3333 10C18.3333 5.39765 14.6023 1.66669 9.99996 1.66669C5.39759 1.66669 1.66663 5.39765 1.66663 10C1.66663 14.6024 5.39759 18.3334 9.99996 18.3334Z" stroke="#23262A" stroke-width="1.8" stroke-linecap="round" stroke-linejoin="round"/>
<path d="M10 5V10L13.3333 11.6667" stroke="#23262A" stroke-width="1.8" stroke-linecap="round" stroke-linejoin="round"/>
</g>
<path d="M29.722 12.83C30.618 12.0553 31.3227 11.4207 31.836 10.926C32.3587 10.422 32.7927 9.89933 33.138 9.358C33.4833 8.81667 33.656 8.27533 33.656 7.734C33.656 7.174 33.5207 6.73533 33.25 6.418C32.9887 6.10067 32.5733 5.942 32.004 5.942C31.4533 5.942 31.024 6.11933 30.716 6.474C30.4173 6.81933 30.2587 7.286 30.24 7.874H28.7C28.728 6.81 29.0453 5.998 29.652 5.438C30.268 4.86867 31.0473 4.584 31.99 4.584C33.0073 4.584 33.8007 4.864 34.37 5.424C34.9487 5.984 35.238 6.73067 35.238 7.664C35.238 8.336 35.0653 8.98467 34.72 9.61C34.384 10.226 33.978 10.7813 33.502 11.276C33.0353 11.7613 32.438 12.326 31.71 12.97L31.08 13.53H35.518V14.86H28.714V13.698L29.722 12.83ZM36.6801 9.764C36.6801 8.14933 36.9507 6.88933 37.4921 5.984C38.0427 5.06933 38.9854 4.612 40.3201 4.612C41.6547 4.612 42.5927 5.06933 43.1341 5.984C43.6847 6.88933 43.9601 8.14933 43.9601 9.764C43.9601 11.3973 43.6847 12.676 43.1341 13.6C42.5927 14.5147 41.6547 14.972 40.3201 14.972C38.9854 14.972 38.0427 14.5147 37.4921 13.6C36.9507 12.676 36.6801 11.3973 36.6801 9.764ZM42.3921 9.764C42.3921 9.008 42.3407 8.36867 42.2381 7.846C42.1447 7.32333 41.9487 6.89867 41.6501 6.572C41.3514 6.236 40.9081 6.068 40.3201 6.068C39.7321 6.068 39.2887 6.236 38.9901 6.572C38.6914 6.89867 38.4907 7.32333 38.3881 7.846C38.2947 8.36867 38.2481 9.008 38.2481 9.764C38.2481 10.548 38.2947 11.206 38.3881 11.738C38.4814 12.27 38.6774 12.6993 38.9761 13.026C39.2841 13.3527 39.7321 13.516 40.3201 13.516C40.9081 13.516 41.3514 13.3527 41.6501 13.026C41.9581 12.6993 42.1587 12.27 42.2521 11.738C42.3454 11.206 42.3921 10.548 42.3921 9.764ZM58.3535 7.16C58.9602 7.16 59.5015 7.286 59.9775 7.538C60.4629 7.79 60.8409 8.16333 61.1115 8.658C61.3915 9.15267 61.5315 9.75 61.5315 10.45V15H59.9495V10.688C59.9495 9.99733 59.7769 9.47 59.4315 9.106C59.0862 8.73267 58.6149 8.546 58.0175 8.546C57.4202 8.546 56.9442 8.73267 56.5895 9.106C56.2442 9.47 56.0715 9.99733 56.0715 10.688V15H54.4895V10.688C54.4895 9.99733 54.3169 9.47 53.9715 9.106C53.6262 8.73267 53.1549 8.546 52.5575 8.546C51.9602 8.546 51.4842 8.73267 51.1295 9.106C50.7842 9.47 50.6115 9.99733 50.6115 10.688V15H49.0155V7.286H50.6115V8.168C50.8729 7.85067 51.2042 7.60333 51.6055 7.426C52.0069 7.24867 52.4362 7.16 52.8935 7.16C53.5095 7.16 54.0602 7.29067 54.5455 7.552C55.0309 7.81333 55.4042 8.19133 55.6655 8.686C55.8989 8.21933 56.2629 7.85067 56.7575 7.58C57.2522 7.3 57.7842 7.16 58.3535 7.16ZM64.1344 6.264C63.8451 6.264 63.6024 6.166 63.4064 5.97C63.2104 5.774 63.1124 5.53133 63.1124 5.242C63.1124 4.95267 63.2104 4.71 63.4064 4.514C63.6024 4.318 63.8451 4.22 64.1344 4.22C64.4144 4.22 64.6524 4.318 64.8484 4.514C65.0444 4.71 65.1424 4.95267 65.1424 5.242C65.1424 5.53133 65.0444 5.774 64.8484 5.97C64.6524 6.166 64.4144 6.264 64.1344 6.264ZM64.9184 7.286V15H63.3224V7.286H64.9184ZM70.6658 7.16C71.2725 7.16 71.8138 7.286 72.2898 7.538C72.7752 7.79 73.1532 8.16333 73.4238 8.658C73.6945 9.15267 73.8298 9.75 73.8298 10.45V15H72.2478V10.688C72.2478 9.99733 72.0752 9.47 71.7298 9.106C71.3845 8.73267 70.9132 8.546 70.3158 8.546C69.7185 8.546 69.2425 8.73267 68.8878 9.106C68.5425 9.47 68.3698 9.99733 68.3698 10.688V15H66.7738V7.286H68.3698V8.168C68.6312 7.85067 68.9625 7.60333 69.3638 7.426C69.7745 7.24867 70.2085 7.16 70.6658 7.16Z" fill="#23262A"/>
<defs>
<clipPath id="clip0_264_737">
<rect width="20" height="20" fill="white"/>
</clipPath>
</defs>
</svg>
