<svg xmlns="http://www.w3.org/2000/svg" width="32" height="32" fill="none"><rect width="32" height="32" fill="#EBF3D4" rx="6"/><path stroke="#8BAA36" stroke-linecap="round" stroke-linejoin="round" stroke-width="1.8" d="M7 7.084v4.552-.09c0 1.274.556 2.402 1.418 3.132.421.357.7.84.7 1.374V23.5c0 .828.711 1.5 1.588 1.5.877 0 1.588-.672 1.588-1.5v-7.448c0-.535.279-1.017.7-1.374.862-.73 1.418-1.858 1.418-3.132V7.084v4.462M10.705 12V7M25 8.052c0-.552-.475-1-1.06-1h-1.059c-1.754 0-3.176 1.343-3.176 3v6c0 1.304.886 2.403 2.118 2.816V23.5c0 .828.711 1.5 1.588 1.5.877 0 1.588-.672 1.588-1.5V8.052Z"/></svg>