<svg xmlns="http://www.w3.org/2000/svg" width="68" height="68" fill="none"><rect width="68" height="68" fill="#8BAA36" rx="12"/><path stroke="#FAFAFA" stroke-linecap="round" stroke-linejoin="round" stroke-width="3" d="M16.401 16.55v8.16-.161c0 2.283.997 4.306 2.542 5.614.755.64 1.254 1.504 1.254 2.463v13.352c0 1.484 1.276 2.688 2.848 2.688 1.571 0 2.847-1.204 2.847-2.688V32.626c0-.959.499-1.823 1.254-2.463 1.545-1.308 2.542-3.33 2.542-5.614V16.55v7.999M23.043 25.363V16.4M48.667 18.285c0-.99-.85-1.792-1.898-1.792H44.87c-3.145 0-5.694 2.407-5.694 5.378v10.755c0 2.338 1.588 4.308 3.796 5.048v8.304c0 1.484 1.275 2.689 2.847 2.689s2.847-1.205 2.847-2.69V18.286Z"/></svg>
