<svg width="20" height="21" viewBox="0 0 20 21" fill="none" xmlns="http://www.w3.org/2000/svg">
<path d="M14.1665 2.16652C15.2707 2.16982 16.3286 2.60989 17.1094 3.39064C17.8901 4.17138 18.3302 5.22935 18.3335 6.33348V14.6665C18.3302 15.7707 17.8901 16.8286 17.1094 17.6094C16.3286 18.3901 15.2707 18.8302 14.1665 18.8335H5.83348C4.72935 18.8302 3.67138 18.3901 2.89064 17.6094C2.10989 16.8286 1.66982 15.7707 1.66652 14.6665V6.33348C1.66982 5.22935 2.10989 4.17138 2.89064 3.39064C3.67138 2.60989 4.72935 2.16982 5.83348 2.16652H14.1665ZM14.1665 0.5H5.83348C2.625 0.5 0 3.125 0 6.33348V14.6665C0 17.875 2.625 20.5 5.83348 20.5H14.1665C17.375 20.5 20 17.875 20 14.6665V6.33348C20 3.125 17.375 0.5 14.1665 0.5Z" fill="#1E1F28"/>
<path d="M15.4165 6.33514C15.1693 6.33514 14.9276 6.26183 14.7221 6.12448C14.5165 5.98713 14.3563 5.79191 14.2617 5.5635C14.1671 5.33509 14.1423 5.08376 14.1905 4.84128C14.2388 4.59881 14.3578 4.37608 14.5326 4.20126C14.7075 4.02645 14.9302 3.90739 15.1727 3.85916C15.4151 3.81093 15.6665 3.83569 15.8949 3.9303C16.1233 4.0249 16.3185 4.18512 16.4559 4.39068C16.5932 4.59624 16.6665 4.83792 16.6665 5.08514C16.6669 5.2494 16.6348 5.4121 16.5721 5.56392C16.5094 5.71573 16.4173 5.85367 16.3012 5.96982C16.185 6.08596 16.0471 6.17802 15.8953 6.24071C15.7435 6.30341 15.5808 6.3355 15.4165 6.33514ZM10 7.16818C10.6593 7.16818 11.3038 7.36368 11.852 7.72997C12.4002 8.09626 12.8274 8.61688 13.0797 9.22599C13.332 9.83511 13.3981 10.5054 13.2694 11.152C13.1408 11.7986 12.8233 12.3926 12.3571 12.8588C11.8909 13.325 11.297 13.6425 10.6503 13.7711C10.0037 13.8997 9.33345 13.8337 8.72433 13.5814C8.11522 13.3291 7.5946 12.9018 7.22831 12.3536C6.86203 11.8055 6.66652 11.161 6.66652 10.5017C6.66747 9.61786 7.01897 8.77052 7.64392 8.14558C8.26886 7.52063 9.1162 7.16912 10 7.16818ZM10 5.50166C9.0111 5.50166 8.0444 5.79491 7.22215 6.34431C6.39991 6.89372 5.75904 7.67461 5.3806 8.58824C5.00217 9.50187 4.90315 10.5072 5.09608 11.4771C5.289 12.447 5.76521 13.3379 6.46447 14.0372C7.16373 14.7365 8.05465 15.2127 9.02455 15.4056C9.99446 15.5985 10.9998 15.4995 11.9134 15.1211C12.827 14.7426 13.6079 14.1018 14.1574 13.2795C14.7068 12.4573 15 11.4906 15 10.5017C15 9.17558 14.4732 7.90381 13.5355 6.96613C12.5979 6.02845 11.3261 5.50166 10 5.50166Z" fill="#1E1F28"/>
</svg>
